<svg xmlns="http://www.w3.org/2000/svg" xmlns:xlink="http://www.w3.org/1999/xlink" width="140" zoomAndPan="magnify" viewBox="0 0 104.88 30.000001" height="40" preserveAspectRatio="xMidYMid meet" version="1.0"><path fill="#be582a" d="M 27.105469 5.824219 C 27.121094 5.828125 27.136719 5.832031 27.15625 5.832031 C 27.519531 5.890625 27.847656 5.949219 28.09375 6.246094 C 28.644531 7.011719 28.726562 8.050781 28.886719 8.953125 C 29.050781 9.886719 29.230469 10.816406 29.433594 11.742188 C 29.441406 11.777344 29.449219 11.808594 29.457031 11.84375 C 29.460938 11.859375 29.464844 11.875 29.46875 11.890625 C 29.472656 11.925781 29.480469 11.957031 29.488281 11.992188 C 29.507812 12.074219 29.527344 12.160156 29.542969 12.242188 C 29.714844 13.015625 29.84375 13.796875 29.976562 14.578125 C 30.101562 15.3125 30.238281 16.042969 30.390625 16.773438 C 30.40625 16.847656 30.421875 16.921875 30.433594 16.992188 C 30.445312 17.042969 30.457031 17.09375 30.46875 17.140625 C 30.550781 17.542969 30.550781 17.542969 30.492188 17.726562 C 30.382812 17.875 30.253906 17.9375 30.074219 17.96875 C 29.996094 17.976562 29.921875 17.980469 29.84375 17.980469 C 29.828125 17.980469 29.816406 17.980469 29.800781 17.980469 C 29.753906 17.980469 29.707031 17.980469 29.660156 17.980469 C 29.652344 17.980469 29.652344 17.980469 29.613281 17.980469 C 29.417969 17.976562 29.226562 17.976562 29.03125 17.96875 C 29.015625 17.96875 29 17.96875 28.980469 17.96875 C 28.75 17.957031 28.589844 17.863281 28.429688 17.695312 C 28.351562 17.597656 28.3125 17.496094 28.28125 17.378906 C 28.277344 17.363281 28.273438 17.347656 28.269531 17.328125 C 28.222656 17.160156 28.195312 16.992188 28.167969 16.820312 C 28.164062 16.789062 28.15625 16.753906 28.152344 16.722656 C 28.136719 16.632812 28.121094 16.546875 28.109375 16.460938 C 28.09375 16.355469 28.074219 16.25 28.058594 16.144531 C 28.042969 16.0625 28.03125 15.980469 28.015625 15.898438 C 28.003906 15.828125 27.992188 15.753906 27.980469 15.679688 C 27.976562 15.648438 27.972656 15.617188 27.964844 15.589844 C 27.957031 15.542969 27.949219 15.496094 27.941406 15.449219 C 27.941406 15.4375 27.9375 15.421875 27.9375 15.410156 C 27.914062 15.285156 27.878906 15.160156 27.785156 15.070312 C 27.6875 15.003906 27.597656 14.996094 27.484375 14.996094 C 27.46875 14.992188 27.453125 14.992188 27.4375 14.992188 C 27.382812 14.992188 27.328125 14.992188 27.277344 14.992188 C 27.265625 14.992188 27.265625 14.992188 27.21875 14.992188 C 26.855469 14.992188 26.492188 15.015625 26.132812 15.042969 C 26.089844 15.046875 26.046875 15.050781 26.003906 15.050781 C 25.925781 15.058594 25.84375 15.066406 25.761719 15.070312 C 25.738281 15.074219 25.714844 15.074219 25.691406 15.078125 C 25.300781 15.109375 25.300781 15.109375 25.214844 15.199219 C 25.203125 15.234375 25.203125 15.234375 25.191406 15.28125 C 25.1875 15.300781 25.183594 15.316406 25.179688 15.335938 C 25.175781 15.355469 25.171875 15.375 25.167969 15.394531 C 25.164062 15.414062 25.160156 15.433594 25.15625 15.457031 C 25.109375 15.679688 25.074219 15.902344 25.042969 16.128906 C 24.730469 18.195312 24.730469 18.195312 24.335938 18.53125 C 24.183594 18.636719 24.050781 18.667969 23.867188 18.652344 C 23.742188 18.628906 23.621094 18.59375 23.5 18.5625 C 23.488281 18.558594 23.488281 18.558594 23.449219 18.546875 C 22.957031 18.414062 22.417969 18.265625 22.140625 17.796875 C 21.917969 17.375 22.117188 16.890625 22.230469 16.460938 C 22.238281 16.4375 22.246094 16.414062 22.25 16.390625 C 22.269531 16.320312 22.289062 16.253906 22.308594 16.183594 C 22.3125 16.160156 22.320312 16.140625 22.324219 16.117188 C 22.378906 15.929688 22.433594 15.742188 22.492188 15.558594 C 22.550781 15.371094 22.605469 15.1875 22.664062 15 C 22.683594 14.9375 22.703125 14.871094 22.722656 14.804688 C 22.777344 14.628906 22.832031 14.449219 22.886719 14.269531 C 22.890625 14.253906 22.894531 14.242188 22.898438 14.226562 C 22.914062 14.171875 22.933594 14.113281 22.949219 14.058594 C 22.980469 13.949219 23.015625 13.84375 23.050781 13.738281 C 23.164062 13.402344 23.261719 13.066406 23.351562 12.726562 C 23.375 12.632812 23.402344 12.542969 23.425781 12.449219 C 23.429688 12.433594 23.433594 12.417969 23.4375 12.402344 C 23.445312 12.371094 23.457031 12.339844 23.464844 12.308594 C 23.476562 12.265625 23.488281 12.21875 23.5 12.171875 C 23.792969 11.082031 24.136719 10.003906 24.476562 8.929688 C 24.558594 8.667969 24.636719 8.40625 24.714844 8.144531 C 25.179688 6.582031 25.179688 6.582031 25.59375 6.128906 C 25.605469 6.113281 25.617188 6.097656 25.628906 6.082031 C 26.011719 5.65625 26.597656 5.746094 27.105469 5.824219 Z M 26.664062 9.046875 C 26.585938 9.1875 26.535156 9.324219 26.492188 9.476562 C 26.484375 9.5 26.476562 9.523438 26.472656 9.546875 C 26.375 9.886719 26.285156 10.226562 26.195312 10.570312 C 26.082031 11.003906 25.964844 11.433594 25.832031 11.863281 C 25.824219 11.878906 25.820312 11.898438 25.816406 11.914062 C 25.789062 12 25.761719 12.085938 25.734375 12.171875 C 25.53125 12.828125 25.53125 12.828125 25.589844 12.976562 C 25.621094 13.03125 25.660156 13.050781 25.71875 13.066406 C 25.945312 13.097656 26.1875 13.070312 26.414062 13.058594 C 26.429688 13.054688 26.449219 13.054688 26.464844 13.054688 C 26.664062 13.042969 26.863281 13.03125 27.066406 13.015625 C 27.082031 13.015625 27.097656 13.015625 27.117188 13.011719 C 27.417969 12.988281 27.417969 12.988281 27.511719 12.90625 C 27.546875 12.863281 27.550781 12.832031 27.558594 12.777344 C 27.550781 12.722656 27.539062 12.667969 27.527344 12.613281 C 27.523438 12.597656 27.523438 12.582031 27.519531 12.5625 C 27.476562 12.367188 27.429688 12.171875 27.382812 11.976562 C 27.253906 11.4375 27.140625 10.898438 27.03125 10.355469 C 26.996094 10.164062 26.957031 9.972656 26.917969 9.785156 C 26.910156 9.746094 26.902344 9.707031 26.894531 9.671875 C 26.796875 9.171875 26.796875 9.171875 26.742188 9.066406 C 26.703125 9.054688 26.703125 9.054688 26.664062 9.046875 Z M 26.664062 9.046875 " fill-opacity="1" fill-rule="nonzero"/><path fill="#be582a" d="M 55.222656 5.691406 C 55.242188 5.703125 55.261719 5.714844 55.28125 5.722656 C 55.613281 5.921875 55.859375 6.226562 56.035156 6.566406 C 56.046875 6.589844 56.0625 6.609375 56.074219 6.636719 C 56.382812 7.253906 56.417969 7.964844 56.425781 8.644531 C 56.425781 8.691406 56.425781 8.738281 56.429688 8.785156 C 56.429688 8.898438 56.433594 9.011719 56.433594 9.125 C 56.507812 9.050781 56.5625 8.980469 56.617188 8.890625 C 56.632812 8.863281 56.648438 8.835938 56.664062 8.8125 C 56.6875 8.769531 56.710938 8.730469 56.734375 8.6875 C 56.890625 8.425781 57.082031 8.113281 57.386719 8.015625 C 57.558594 7.992188 57.703125 8.007812 57.84375 8.113281 C 58 8.261719 58.058594 8.464844 58.113281 8.667969 C 58.160156 8.832031 58.21875 8.996094 58.28125 9.15625 C 58.386719 9.417969 58.480469 9.683594 58.566406 9.953125 C 58.574219 9.96875 58.578125 9.988281 58.585938 10.003906 C 58.644531 10.1875 58.703125 10.375 58.757812 10.558594 C 58.941406 11.136719 58.941406 11.136719 59.023438 11.355469 C 59.027344 11.371094 59.035156 11.386719 59.039062 11.402344 C 59.140625 11.65625 59.140625 11.65625 59.246094 11.714844 C 59.261719 11.71875 59.277344 11.722656 59.292969 11.726562 C 59.363281 11.613281 59.425781 11.5 59.484375 11.378906 C 59.488281 11.371094 59.488281 11.371094 59.511719 11.324219 C 59.53125 11.285156 59.546875 11.246094 59.566406 11.207031 C 59.617188 11.101562 59.667969 11 59.71875 10.894531 C 59.730469 10.871094 59.742188 10.851562 59.75 10.828125 C 59.878906 10.566406 60.011719 10.300781 60.144531 10.039062 C 60.257812 9.816406 60.363281 9.59375 60.472656 9.371094 C 60.628906 9.039062 60.796875 8.722656 60.984375 8.40625 C 61.015625 8.355469 61.046875 8.304688 61.074219 8.25 C 61.195312 8.035156 61.292969 7.875 61.539062 7.800781 C 61.742188 7.777344 61.914062 7.8125 62.097656 7.894531 C 62.25 7.949219 62.421875 7.941406 62.582031 7.941406 C 62.738281 7.945312 62.847656 7.976562 62.960938 8.089844 C 63.054688 8.230469 63.082031 8.371094 63.109375 8.535156 C 63.125 8.601562 63.136719 8.671875 63.148438 8.738281 C 63.152344 8.753906 63.152344 8.769531 63.15625 8.78125 C 63.1875 8.945312 63.226562 9.109375 63.261719 9.269531 C 63.265625 9.289062 63.273438 9.3125 63.277344 9.332031 C 63.28125 9.347656 63.285156 9.367188 63.289062 9.386719 C 63.316406 9.53125 63.324219 9.675781 63.328125 9.824219 C 63.328125 9.847656 63.328125 9.867188 63.328125 9.890625 C 63.328125 9.964844 63.332031 10.035156 63.332031 10.109375 C 63.332031 10.136719 63.332031 10.160156 63.332031 10.1875 C 63.34375 10.785156 63.339844 11.378906 63.339844 11.976562 C 63.339844 12.296875 63.339844 12.613281 63.339844 12.933594 C 63.339844 12.949219 63.339844 12.964844 63.339844 12.980469 C 63.339844 13.617188 63.34375 14.253906 63.347656 14.886719 C 63.347656 14.957031 63.347656 15.027344 63.351562 15.097656 C 63.355469 15.675781 63.363281 16.25 63.378906 16.824219 C 63.378906 16.851562 63.382812 16.878906 63.382812 16.90625 C 63.382812 16.972656 63.386719 17.039062 63.386719 17.105469 C 63.386719 17.117188 63.386719 17.117188 63.386719 17.164062 C 63.390625 17.28125 63.40625 17.398438 63.488281 17.492188 C 63.539062 17.539062 63.589844 17.539062 63.65625 17.539062 C 63.789062 17.480469 63.828125 17.371094 63.878906 17.242188 C 63.90625 17.167969 63.933594 17.09375 63.957031 17.019531 C 63.960938 17.003906 63.964844 16.988281 63.96875 16.976562 C 64.101562 16.570312 64.183594 16.152344 64.269531 15.734375 C 64.300781 15.570312 64.335938 15.410156 64.375 15.246094 C 64.375 15.242188 64.375 15.242188 64.382812 15.207031 C 64.445312 14.929688 64.507812 14.652344 64.574219 14.375 C 64.59375 14.289062 64.613281 14.199219 64.636719 14.109375 C 64.644531 14.066406 64.65625 14.019531 64.667969 13.972656 C 64.765625 13.546875 64.859375 13.121094 64.945312 12.691406 C 65.082031 12.027344 65.226562 11.371094 65.390625 10.714844 C 65.464844 10.40625 65.539062 10.09375 65.609375 9.78125 C 65.621094 9.738281 65.632812 9.691406 65.640625 9.644531 C 65.65625 9.585938 65.667969 9.527344 65.683594 9.46875 C 65.695312 9.410156 65.710938 9.351562 65.722656 9.296875 C 65.753906 9.171875 65.78125 9.046875 65.808594 8.921875 C 65.929688 8.386719 65.929688 8.386719 66.019531 8.128906 C 66.027344 8.105469 66.035156 8.082031 66.042969 8.058594 C 66.136719 7.78125 66.289062 7.519531 66.554688 7.378906 C 66.847656 7.28125 67.136719 7.320312 67.433594 7.363281 C 67.527344 7.375 67.621094 7.382812 67.714844 7.394531 C 67.738281 7.394531 67.761719 7.398438 67.789062 7.398438 C 67.835938 7.40625 67.882812 7.410156 67.929688 7.414062 C 68.191406 7.4375 68.421875 7.511719 68.609375 7.703125 C 68.78125 7.910156 68.867188 8.199219 68.957031 8.445312 C 68.996094 8.546875 69.035156 8.644531 69.078125 8.742188 C 69.195312 9.003906 69.273438 9.265625 69.34375 9.542969 C 69.355469 9.589844 69.367188 9.632812 69.375 9.675781 C 69.402344 9.785156 69.429688 9.890625 69.457031 10 C 69.492188 10.140625 69.527344 10.285156 69.566406 10.425781 C 69.566406 10.433594 69.566406 10.433594 69.578125 10.46875 C 69.65625 10.773438 69.746094 11.078125 69.835938 11.382812 C 69.984375 11.878906 70.117188 12.375 70.242188 12.875 C 70.300781 13.109375 70.359375 13.34375 70.417969 13.574219 C 70.496094 13.875 70.570312 14.171875 70.644531 14.472656 C 70.652344 14.5 70.660156 14.527344 70.664062 14.554688 C 70.667969 14.5625 70.667969 14.5625 70.675781 14.597656 C 70.695312 14.667969 70.710938 14.734375 70.726562 14.804688 C 70.730469 14.8125 70.730469 14.8125 70.738281 14.847656 C 70.820312 15.183594 70.910156 15.523438 71.003906 15.859375 C 71.066406 16.070312 71.117188 16.285156 71.164062 16.503906 C 71.210938 16.695312 71.261719 16.882812 71.320312 17.070312 C 71.378906 17.269531 71.4375 17.464844 71.488281 17.667969 C 71.496094 17.683594 71.5 17.703125 71.503906 17.722656 C 71.542969 17.871094 71.570312 18.039062 71.503906 18.183594 C 71.359375 18.332031 71.1875 18.355469 70.988281 18.359375 C 70.804688 18.359375 70.621094 18.347656 70.441406 18.335938 C 70.414062 18.335938 70.390625 18.335938 70.367188 18.332031 C 70.0625 18.3125 69.675781 18.265625 69.453125 18.035156 C 69.230469 17.757812 69.183594 17.332031 69.097656 16.996094 C 69.082031 16.933594 69.066406 16.871094 69.050781 16.808594 C 68.953125 16.429688 68.859375 16.050781 68.785156 15.664062 C 68.714844 15.316406 68.714844 15.316406 68.601562 15.238281 C 68.457031 15.191406 68.320312 15.195312 68.171875 15.195312 C 68.160156 15.195312 68.148438 15.195312 68.132812 15.195312 C 67.914062 15.195312 67.691406 15.207031 67.472656 15.222656 C 67.273438 15.238281 67.078125 15.246094 66.878906 15.25 C 66.546875 15.257812 66.546875 15.257812 66.445312 15.339844 C 66.386719 15.40625 66.367188 15.472656 66.347656 15.554688 C 66.34375 15.570312 66.339844 15.585938 66.332031 15.601562 C 66.300781 15.734375 66.269531 15.867188 66.242188 16 C 66.109375 16.617188 65.921875 17.214844 65.726562 17.816406 C 65.699219 17.90625 65.667969 17.996094 65.644531 18.089844 C 65.640625 18.097656 65.640625 18.097656 65.625 18.148438 C 65.613281 18.1875 65.601562 18.222656 65.59375 18.261719 C 65.558594 18.375 65.523438 18.425781 65.425781 18.492188 C 65.292969 18.558594 65.148438 18.582031 65.003906 18.601562 C 64.988281 18.605469 64.96875 18.605469 64.953125 18.609375 C 64.757812 18.636719 64.5625 18.65625 64.367188 18.671875 C 64.328125 18.675781 64.289062 18.679688 64.25 18.679688 C 63.886719 18.710938 63.523438 18.742188 63.160156 18.769531 C 63.121094 18.769531 63.085938 18.773438 63.046875 18.777344 C 62.125 18.847656 62.125 18.847656 61.773438 18.550781 C 61.410156 18.214844 61.324219 17.828125 61.292969 17.351562 C 61.289062 17.328125 61.289062 17.304688 61.285156 17.28125 C 61.25 16.746094 61.242188 16.207031 61.238281 15.667969 C 61.238281 15.492188 61.234375 15.320312 61.226562 15.148438 C 61.214844 14.875 61.210938 14.601562 61.207031 14.328125 C 61.207031 14.28125 61.207031 14.234375 61.203125 14.1875 C 61.203125 13.992188 61.199219 13.796875 61.195312 13.601562 C 61.195312 13.480469 61.191406 13.363281 61.191406 13.242188 C 61.1875 13.195312 61.1875 13.148438 61.1875 13.105469 C 61.179688 12.652344 61.179688 12.652344 61.136719 12.441406 C 61.046875 12.492188 61.015625 12.53125 60.96875 12.625 C 60.960938 12.640625 60.957031 12.652344 60.949219 12.667969 C 60.890625 12.785156 60.839844 12.902344 60.789062 13.023438 C 60.777344 13.046875 60.765625 13.070312 60.753906 13.097656 C 60.75 13.109375 60.742188 13.121094 60.738281 13.132812 C 60.640625 13.355469 60.527344 13.570312 60.410156 13.78125 C 60.378906 13.835938 60.347656 13.894531 60.320312 13.949219 C 60.191406 14.195312 60.03125 14.417969 59.867188 14.640625 C 59.859375 14.648438 59.859375 14.648438 59.828125 14.695312 C 59.652344 14.921875 59.421875 15.132812 59.132812 15.179688 C 58.898438 15.199219 58.699219 15.1875 58.511719 15.035156 C 58.050781 14.59375 57.851562 13.867188 57.644531 13.28125 C 57.640625 13.273438 57.640625 13.273438 57.628906 13.238281 C 57.605469 13.171875 57.582031 13.101562 57.558594 13.035156 C 57.546875 13.011719 57.539062 12.984375 57.53125 12.960938 C 57.523438 12.9375 57.515625 12.917969 57.507812 12.894531 C 57.484375 12.835938 57.460938 12.789062 57.425781 12.738281 C 57.40625 12.738281 57.386719 12.738281 57.367188 12.738281 C 57.324219 12.867188 57.292969 12.996094 57.277344 13.132812 C 57.277344 13.152344 57.273438 13.171875 57.273438 13.191406 C 57.265625 13.253906 57.257812 13.316406 57.25 13.378906 C 57.25 13.402344 57.246094 13.421875 57.242188 13.445312 C 57.132812 14.429688 57.039062 15.417969 57.019531 16.410156 C 57.019531 16.425781 57.019531 16.445312 57.019531 16.464844 C 57.019531 16.484375 57.019531 16.5 57.019531 16.519531 C 56.992188 17.796875 56.992188 17.796875 56.65625 18.15625 C 56.457031 18.335938 56.164062 18.390625 55.90625 18.433594 C 55.886719 18.4375 55.867188 18.441406 55.847656 18.441406 C 55.644531 18.476562 55.441406 18.5 55.234375 18.519531 C 55.167969 18.527344 55.101562 18.53125 55.035156 18.539062 C 54.894531 18.554688 54.75 18.566406 54.609375 18.582031 C 54.445312 18.597656 54.277344 18.613281 54.113281 18.632812 C 54.046875 18.636719 53.984375 18.644531 53.917969 18.652344 C 53.554688 18.6875 53.183594 18.726562 52.835938 18.835938 C 52.816406 18.84375 52.796875 18.847656 52.777344 18.855469 C 52.550781 18.925781 52.316406 18.996094 52.105469 19.109375 C 52.113281 19.105469 52.113281 19.105469 52.148438 19.101562 C 53.363281 18.882812 54.554688 18.800781 55.792969 18.84375 C 55.804688 18.84375 55.804688 18.84375 55.863281 18.847656 C 56.359375 18.867188 56.851562 18.902344 57.347656 18.949219 C 57.367188 18.949219 57.386719 18.953125 57.410156 18.957031 C 58.445312 19.054688 59.457031 19.261719 60.46875 19.496094 C 60.613281 19.53125 60.757812 19.5625 60.902344 19.59375 C 60.910156 19.597656 60.910156 19.597656 60.953125 19.605469 C 60.984375 19.613281 61.019531 19.621094 61.050781 19.628906 C 61.433594 19.710938 61.816406 19.804688 62.199219 19.894531 C 63.515625 20.210938 63.515625 20.210938 64.03125 20.324219 C 64.25 20.371094 64.472656 20.421875 64.691406 20.46875 C 65.4375 20.640625 66.179688 20.804688 66.933594 20.925781 C 66.992188 20.933594 67.054688 20.945312 67.117188 20.953125 C 68.085938 21.117188 69.058594 21.222656 70.039062 21.292969 C 70.0625 21.292969 70.085938 21.292969 70.109375 21.296875 C 70.179688 21.300781 70.253906 21.304688 70.324219 21.3125 C 70.339844 21.3125 70.355469 21.3125 70.367188 21.3125 C 70.617188 21.328125 70.867188 21.335938 71.121094 21.335938 C 71.160156 21.335938 71.199219 21.335938 71.238281 21.335938 C 71.363281 21.335938 71.488281 21.335938 71.613281 21.335938 C 71.625 21.335938 71.625 21.335938 71.679688 21.335938 C 72.316406 21.335938 72.953125 21.328125 73.589844 21.273438 C 73.65625 21.269531 73.722656 21.265625 73.792969 21.261719 C 75.453125 21.140625 77.046875 20.78125 79.109375 20.035156 C 79.464844 19.890625 79.929688 19.738281 80.304688 19.878906 C 80.441406 19.953125 80.542969 20.058594 80.605469 20.199219 C 80.644531 20.339844 80.605469 20.457031 80.542969 20.585938 C 80.4375 20.753906 80.296875 20.851562 80.113281 20.917969 C 79.921875 20.964844 79.761719 20.945312 79.570312 20.902344 C 79.300781 20.84375 79.121094 20.875 78.859375 20.957031 C 78.488281 21.078125 78.109375 21.179688 77.730469 21.28125 C 77.691406 21.289062 77.648438 21.300781 77.609375 21.3125 C 76.601562 21.574219 75.550781 21.761719 74.511719 21.847656 C 74.503906 21.847656 74.503906 21.847656 74.457031 21.851562 C 74.300781 21.863281 74.144531 21.875 73.988281 21.890625 C 73.96875 21.890625 73.945312 21.890625 73.925781 21.894531 C 73.449219 21.929688 72.976562 21.949219 72.503906 21.957031 C 72.480469 21.957031 72.457031 21.957031 72.433594 21.957031 C 72.265625 21.960938 72.101562 21.964844 71.933594 21.964844 C 71.914062 21.964844 71.894531 21.964844 71.875 21.964844 C 69.804688 21.992188 67.769531 21.738281 65.742188 21.351562 C 65.71875 21.347656 65.691406 21.339844 65.667969 21.335938 C 64.789062 21.167969 63.917969 20.980469 63.050781 20.769531 C 62.800781 20.707031 62.550781 20.648438 62.296875 20.59375 C 62.058594 20.542969 61.820312 20.484375 61.582031 20.425781 C 60.792969 20.230469 60 20.054688 59.203125 19.910156 C 59.152344 19.902344 59.105469 19.894531 59.054688 19.882812 C 58.222656 19.734375 57.375 19.628906 56.53125 19.5625 C 56.519531 19.5625 56.507812 19.5625 56.492188 19.5625 C 54.726562 19.429688 52.835938 19.550781 50.0625 21.011719 C 49.996094 21.070312 49.929688 21.132812 49.863281 21.191406 C 49.851562 21.207031 49.835938 21.21875 49.820312 21.234375 C 49.0625 21.960938 48.679688 23.0625 48.648438 24.09375 C 48.644531 24.519531 48.71875 24.941406 48.800781 25.359375 C 48.839844 25.574219 48.855469 25.777344 48.855469 26 C 48.859375 26.023438 48.859375 26.046875 48.859375 26.074219 C 48.859375 26.425781 48.765625 26.710938 48.519531 26.964844 C 48.378906 27.097656 48.210938 27.164062 48.015625 27.167969 C 47.792969 27.152344 47.644531 27.085938 47.484375 26.925781 C 47.203125 26.59375 47.175781 26.171875 47.210938 25.753906 C 47.246094 25.449219 47.304688 25.148438 47.367188 24.847656 C 47.433594 24.519531 47.472656 24.195312 47.46875 23.855469 C 47.46875 23.84375 47.46875 23.828125 47.46875 23.8125 C 47.46875 23.558594 47.449219 23.308594 47.402344 23.058594 C 47.402344 23.042969 47.398438 23.027344 47.394531 23.011719 C 47.238281 22.207031 46.796875 21.460938 46.234375 20.875 C 46.21875 20.859375 46.203125 20.84375 46.1875 20.828125 C 45.945312 20.566406 45.632812 20.398438 45.300781 20.277344 C 45.304688 20.292969 45.304688 20.308594 45.308594 20.320312 C 45.367188 20.632812 45.277344 20.929688 45.101562 21.1875 C 44.917969 21.433594 44.664062 21.5625 44.386719 21.667969 C 44.367188 21.675781 44.347656 21.683594 44.324219 21.691406 C 44 21.800781 43.636719 21.839844 43.296875 21.867188 C 43.273438 21.867188 43.253906 21.871094 43.230469 21.871094 C 42.980469 21.890625 42.730469 21.890625 42.480469 21.894531 C 42.457031 21.894531 42.433594 21.894531 42.40625 21.894531 C 41.945312 21.894531 41.488281 21.871094 41.027344 21.847656 C 41.011719 21.847656 40.992188 21.847656 40.976562 21.84375 C 40.925781 21.84375 40.875 21.839844 40.824219 21.835938 C 40.757812 21.832031 40.691406 21.828125 40.625 21.824219 C 40.609375 21.824219 40.59375 21.824219 40.578125 21.824219 C 38.972656 21.738281 37.207031 21.789062 35.851562 22.78125 C 35.835938 22.789062 35.820312 22.800781 35.804688 22.8125 C 35.632812 22.960938 35.640625 23.238281 35.625 23.445312 C 35.621094 23.472656 35.621094 23.5 35.617188 23.527344 C 35.609375 23.597656 35.605469 23.667969 35.597656 23.742188 C 35.519531 24.652344 35.519531 24.652344 35.421875 24.996094 C 35.417969 25.011719 35.414062 25.03125 35.410156 25.050781 C 35.257812 25.570312 35.046875 26.164062 34.550781 26.449219 C 34.261719 26.609375 33.976562 26.65625 33.65625 26.597656 C 33.339844 26.496094 33.121094 26.292969 32.957031 26.015625 C 32.769531 25.652344 32.777344 25.265625 32.894531 24.882812 C 33.097656 24.285156 33.519531 23.800781 33.957031 23.359375 C 33.976562 23.34375 33.996094 23.324219 34.011719 23.308594 C 34.113281 23.207031 34.214844 23.109375 34.324219 23.019531 C 34.347656 22.996094 34.371094 22.976562 34.394531 22.957031 C 34.414062 22.9375 34.4375 22.921875 34.460938 22.902344 C 34.472656 22.890625 34.484375 22.878906 34.496094 22.871094 C 34.570312 22.804688 34.644531 22.746094 34.722656 22.683594 C 34.929688 22.511719 35.003906 22.355469 35.03125 22.085938 C 35.050781 21.871094 35.054688 21.648438 35.058594 21.429688 C 35.046875 21.429688 35.03125 21.429688 35.019531 21.429688 C 35.015625 21.441406 35.007812 21.453125 35.003906 21.464844 C 34.976562 21.515625 34.941406 21.554688 34.902344 21.597656 C 34.828125 21.675781 34.761719 21.753906 34.699219 21.839844 C 34.429688 22.1875 34.101562 22.535156 33.648438 22.621094 C 33.460938 22.640625 33.261719 22.597656 33.105469 22.488281 C 32.824219 22.25 32.785156 21.976562 32.738281 21.628906 C 32.726562 21.640625 32.71875 21.652344 32.707031 21.664062 C 32.609375 21.789062 32.507812 21.910156 32.398438 22.023438 C 32.386719 22.039062 32.375 22.050781 32.363281 22.066406 C 32.132812 22.304688 31.882812 22.476562 31.550781 22.488281 C 31.382812 22.484375 31.234375 22.457031 31.113281 22.332031 C 30.945312 22.117188 30.925781 21.878906 30.925781 21.613281 C 30.925781 21.609375 30.925781 21.609375 30.925781 21.574219 C 30.925781 21.390625 30.933594 21.207031 30.949219 21.023438 C 30.96875 20.828125 30.976562 20.632812 30.976562 20.4375 C 30.980469 20.414062 30.980469 20.390625 30.980469 20.363281 C 30.980469 20.351562 30.980469 20.351562 30.980469 20.292969 C 30.980469 20.273438 30.980469 20.253906 30.980469 20.234375 C 30.96875 20.164062 30.945312 20.140625 30.890625 20.101562 C 30.796875 20.09375 30.742188 20.121094 30.675781 20.179688 C 30.214844 20.617188 29.957031 21.285156 29.753906 21.875 C 29.75 21.894531 29.742188 21.910156 29.738281 21.925781 C 29.710938 22.011719 29.679688 22.097656 29.652344 22.183594 C 29.640625 22.214844 29.632812 22.246094 29.621094 22.28125 C 29.617188 22.292969 29.609375 22.308594 29.605469 22.324219 C 29.558594 22.460938 29.496094 22.566406 29.367188 22.640625 C 29.292969 22.671875 29.222656 22.675781 29.144531 22.660156 C 29.046875 22.613281 29.015625 22.535156 28.980469 22.4375 C 28.902344 22.164062 28.945312 21.847656 28.964844 21.566406 C 28.988281 21.105469 28.992188 20.644531 28.984375 20.179688 C 28.683594 20.257812 28.472656 20.609375 28.320312 20.867188 C 28.289062 20.917969 28.261719 20.972656 28.234375 21.027344 C 28.230469 21.035156 28.230469 21.035156 28.203125 21.085938 C 28.011719 21.464844 27.875 21.863281 27.78125 22.273438 C 27.777344 22.277344 27.777344 22.277344 27.769531 22.3125 C 27.753906 22.375 27.742188 22.4375 27.726562 22.503906 C 27.691406 22.65625 27.660156 22.777344 27.542969 22.886719 C 27.433594 22.9375 27.328125 22.933594 27.210938 22.894531 C 27.140625 22.84375 27.089844 22.789062 27.074219 22.695312 C 27.070312 22.644531 27.070312 22.597656 27.070312 22.546875 C 27.074219 22.527344 27.074219 22.507812 27.074219 22.488281 C 27.078125 22.257812 27.109375 22.03125 27.140625 21.804688 C 27.183594 21.449219 27.222656 21.105469 27.222656 20.75 C 27.222656 20.695312 27.222656 20.644531 27.222656 20.589844 C 27.222656 20.558594 27.222656 20.523438 27.222656 20.488281 C 27.222656 20.480469 27.222656 20.480469 27.222656 20.441406 C 27.222656 20.363281 27.21875 20.292969 27.199219 20.21875 C 26.886719 20.292969 26.648438 20.578125 26.425781 20.792969 C 26.414062 20.804688 26.40625 20.816406 26.394531 20.824219 C 26.3125 20.902344 26.234375 20.984375 26.164062 21.066406 C 26.097656 21.144531 26.023438 21.21875 25.949219 21.289062 C 25.867188 21.375 25.785156 21.457031 25.707031 21.546875 C 25.621094 21.648438 25.527344 21.746094 25.433594 21.847656 C 25.414062 21.867188 25.398438 21.886719 25.378906 21.90625 C 25.265625 22.023438 25.167969 22.101562 25.007812 22.144531 C 24.90625 22.144531 24.824219 22.125 24.746094 22.058594 C 24.675781 21.972656 24.664062 21.890625 24.667969 21.785156 C 24.703125 21.59375 24.859375 21.453125 24.988281 21.320312 C 25.027344 21.277344 25.066406 21.238281 25.101562 21.195312 C 25.1875 21.097656 25.28125 21.007812 25.375 20.914062 C 25.445312 20.84375 25.515625 20.765625 25.585938 20.6875 C 25.625 20.640625 25.664062 20.597656 25.710938 20.558594 C 25.722656 20.558594 25.738281 20.558594 25.75 20.558594 C 25.75 20.542969 25.75 20.53125 25.75 20.515625 C 25.777344 20.492188 25.777344 20.492188 25.816406 20.460938 C 25.890625 20.394531 25.960938 20.328125 26.027344 20.257812 C 26.105469 20.183594 26.179688 20.109375 26.261719 20.039062 C 26.296875 20.007812 26.332031 19.976562 26.367188 19.945312 C 26.621094 19.722656 26.894531 19.507812 27.242188 19.480469 C 27.40625 19.492188 27.527344 19.527344 27.640625 19.652344 C 27.765625 19.824219 27.832031 20.03125 27.875 20.238281 C 27.960938 20.210938 28.003906 20.175781 28.0625 20.109375 C 28.074219 20.089844 28.089844 20.070312 28.105469 20.054688 C 28.121094 20.035156 28.136719 20.019531 28.152344 20 C 28.179688 19.972656 28.203125 19.945312 28.226562 19.914062 C 28.265625 19.875 28.296875 19.835938 28.328125 19.792969 C 28.488281 19.605469 28.726562 19.421875 28.976562 19.398438 C 29.15625 19.394531 29.273438 19.402344 29.40625 19.523438 C 29.597656 19.722656 29.621094 19.949219 29.632812 20.214844 C 29.636719 20.296875 29.644531 20.375 29.660156 20.457031 C 29.667969 20.449219 29.675781 20.4375 29.679688 20.425781 C 29.820312 20.21875 29.960938 20.019531 30.128906 19.832031 C 30.15625 19.804688 30.179688 19.777344 30.203125 19.746094 C 30.40625 19.519531 30.632812 19.289062 30.949219 19.265625 C 31.113281 19.265625 31.261719 19.292969 31.390625 19.402344 C 31.625 19.644531 31.691406 19.933594 31.691406 20.261719 C 31.691406 20.285156 31.691406 20.3125 31.691406 20.335938 C 31.691406 20.597656 31.664062 20.855469 31.632812 21.113281 C 31.578125 21.589844 31.578125 21.589844 31.644531 21.726562 C 31.753906 21.738281 31.796875 21.710938 31.882812 21.648438 C 32.445312 21.171875 32.816406 20.421875 33.089844 19.75 C 33.140625 19.625 33.191406 19.507812 33.308594 19.425781 C 33.414062 19.390625 33.492188 19.390625 33.59375 19.429688 C 33.671875 19.480469 33.71875 19.515625 33.75 19.605469 C 33.761719 19.777344 33.742188 19.9375 33.699219 20.105469 C 33.695312 20.125 33.6875 20.148438 33.683594 20.171875 C 33.667969 20.242188 33.652344 20.3125 33.632812 20.382812 C 33.441406 21.203125 33.441406 21.203125 33.445312 21.515625 C 33.445312 21.535156 33.445312 21.550781 33.445312 21.574219 C 33.445312 21.671875 33.449219 21.757812 33.492188 21.847656 C 33.570312 21.886719 33.667969 21.878906 33.75 21.855469 C 34.011719 21.734375 34.183594 21.4375 34.34375 21.210938 C 34.40625 21.125 34.46875 21.039062 34.535156 20.953125 C 34.832031 20.566406 35.058594 20.132812 35.234375 19.679688 C 35.285156 19.554688 35.34375 19.480469 35.457031 19.40625 C 35.554688 19.390625 35.632812 19.394531 35.722656 19.4375 C 35.796875 19.503906 35.835938 19.566406 35.851562 19.664062 C 35.855469 19.699219 35.851562 19.730469 35.851562 19.765625 C 35.851562 19.773438 35.851562 19.773438 35.847656 19.828125 C 35.847656 19.847656 35.847656 19.871094 35.847656 19.894531 C 35.847656 19.90625 35.847656 19.90625 35.84375 19.964844 C 35.832031 20.253906 35.816406 20.539062 35.796875 20.824219 C 35.792969 20.882812 35.789062 20.941406 35.785156 20.996094 C 35.765625 21.335938 35.746094 21.667969 35.714844 22.003906 C 35.726562 22 35.734375 21.996094 35.746094 21.992188 C 35.867188 21.933594 35.988281 21.882812 36.109375 21.828125 C 36.121094 21.824219 36.121094 21.824219 36.171875 21.800781 C 37.527344 21.203125 38.878906 21.101562 40.339844 21.175781 C 40.457031 21.183594 40.574219 21.1875 40.695312 21.195312 C 40.707031 21.195312 40.707031 21.195312 40.765625 21.195312 C 40.8125 21.199219 40.855469 21.203125 40.902344 21.203125 C 40.972656 21.207031 41.039062 21.210938 41.105469 21.214844 C 41.535156 21.234375 41.960938 21.253906 42.390625 21.253906 C 42.398438 21.253906 42.398438 21.253906 42.4375 21.253906 C 44.046875 21.253906 44.046875 21.253906 44.511719 20.878906 C 44.625 20.761719 44.6875 20.605469 44.691406 20.441406 C 44.6875 20.332031 44.652344 20.25 44.582031 20.164062 C 44.398438 20.015625 44.203125 20.003906 43.972656 19.980469 C 42.867188 19.863281 41.78125 19.398438 40.894531 18.730469 C 40.882812 18.722656 40.867188 18.710938 40.855469 18.703125 C 40.476562 18.417969 40.105469 18.078125 39.820312 17.699219 C 39.8125 17.6875 39.804688 17.675781 39.792969 17.660156 C 39.503906 17.269531 39.265625 16.863281 39.046875 16.429688 C 39.035156 16.40625 39.027344 16.382812 39.015625 16.359375 C 38.4375 15.203125 38.066406 13.96875 37.902344 12.683594 C 37.871094 12.433594 37.828125 12.183594 37.777344 11.933594 C 37.632812 11.203125 37.800781 10.53125 38.136719 9.878906 C 38.144531 9.859375 38.15625 9.839844 38.164062 9.820312 C 38.230469 9.699219 38.304688 9.585938 38.386719 9.476562 C 38.398438 9.457031 38.410156 9.441406 38.421875 9.425781 C 38.527344 9.289062 38.636719 9.15625 38.75 9.027344 C 38.761719 9.015625 38.769531 9.003906 38.78125 8.988281 C 38.992188 8.742188 39.226562 8.507812 39.484375 8.3125 C 39.511719 8.292969 39.535156 8.269531 39.5625 8.25 C 40.296875 7.660156 41.148438 7.210938 42.027344 6.875 C 42.046875 6.867188 42.0625 6.859375 42.082031 6.851562 C 43.339844 6.371094 44.640625 6.050781 45.976562 5.882812 C 45.996094 5.882812 46.015625 5.878906 46.035156 5.875 C 46.546875 5.8125 47.058594 5.785156 47.574219 5.785156 C 47.652344 5.785156 47.730469 5.785156 47.808594 5.785156 C 48.863281 5.78125 49.992188 5.996094 50.9375 6.484375 C 51.261719 6.652344 51.261719 6.652344 51.414062 6.605469 C 51.535156 6.542969 51.632812 6.449219 51.734375 6.359375 C 51.933594 6.175781 52.144531 6.019531 52.386719 5.890625 C 52.390625 5.886719 52.390625 5.886719 52.421875 5.871094 C 52.832031 5.648438 53.289062 5.46875 53.753906 5.414062 C 53.773438 5.410156 53.789062 5.410156 53.808594 5.40625 C 54.316406 5.351562 54.777344 5.445312 55.222656 5.691406 Z M 52.0625 6.960938 C 52 7.035156 51.964844 7.085938 51.972656 7.183594 C 51.992188 7.277344 52.027344 7.335938 52.082031 7.410156 C 52.089844 7.421875 52.097656 7.433594 52.109375 7.449219 C 52.164062 7.527344 52.222656 7.601562 52.285156 7.675781 C 52.363281 7.613281 52.4375 7.546875 52.503906 7.472656 C 52.839844 7.136719 53.300781 6.933594 53.773438 6.917969 C 54.082031 6.921875 54.382812 7.015625 54.605469 7.230469 C 54.910156 7.574219 55.046875 7.976562 55.0625 8.429688 C 55.066406 8.449219 55.066406 8.472656 55.066406 8.492188 C 55.089844 9.761719 54.394531 10.960938 53.542969 11.855469 C 53.480469 11.921875 53.414062 11.984375 53.347656 12.050781 C 53.253906 12.160156 53.253906 12.3125 53.253906 12.453125 C 53.253906 12.476562 53.253906 12.503906 53.25 12.53125 C 53.257812 12.601562 53.269531 12.628906 53.316406 12.675781 C 53.746094 12.636719 54.230469 12.136719 54.496094 11.824219 C 54.714844 11.546875 54.902344 11.253906 55.082031 10.949219 C 55.097656 10.929688 55.109375 10.910156 55.121094 10.890625 C 55.199219 10.757812 55.269531 10.621094 55.328125 10.476562 C 55.335938 10.453125 55.347656 10.429688 55.355469 10.410156 C 55.503906 10.050781 55.652344 9.6875 55.71875 9.304688 C 55.722656 9.289062 55.722656 9.273438 55.726562 9.257812 C 55.867188 8.457031 55.863281 7.40625 55.402344 6.703125 C 55.351562 6.636719 55.296875 6.570312 55.242188 6.503906 C 55.230469 6.492188 55.222656 6.480469 55.210938 6.46875 C 54.988281 6.226562 54.625 6.046875 54.300781 6.027344 C 53.492188 5.992188 52.621094 6.375 52.0625 6.960938 Z M 43.792969 6.863281 C 43.761719 6.871094 43.734375 6.878906 43.707031 6.886719 C 43.042969 7.070312 42.394531 7.289062 41.765625 7.578125 C 41.742188 7.585938 41.722656 7.597656 41.695312 7.609375 C 40.988281 7.9375 40.332031 8.335938 39.742188 8.847656 C 39.730469 8.859375 39.714844 8.871094 39.699219 8.882812 C 39.660156 8.917969 39.621094 8.953125 39.585938 8.984375 C 39.566406 9.003906 39.546875 9.019531 39.527344 9.035156 C 39.394531 9.15625 39.277344 9.28125 39.167969 9.421875 C 39.144531 9.449219 39.125 9.476562 39.105469 9.5 C 38.96875 9.671875 38.851562 9.84375 38.75 10.039062 C 38.738281 10.0625 38.722656 10.089844 38.710938 10.113281 C 38.453125 10.59375 38.320312 11.148438 38.472656 11.683594 C 38.6875 12.355469 39.191406 12.757812 39.796875 13.074219 C 39.921875 13.132812 40.050781 13.1875 40.179688 13.234375 C 40.1875 13.234375 40.1875 13.234375 40.222656 13.25 C 40.511719 13.351562 40.8125 13.410156 41.113281 13.472656 C 41.128906 13.476562 41.148438 13.480469 41.167969 13.484375 C 41.210938 13.492188 41.25 13.492188 41.296875 13.492188 C 41.320312 13.492188 41.34375 13.492188 41.371094 13.492188 C 41.359375 13.390625 41.3125 13.328125 41.257812 13.246094 C 41.25 13.234375 41.238281 13.21875 41.230469 13.207031 C 41.210938 13.179688 41.195312 13.15625 41.175781 13.128906 C 41.15625 13.101562 41.136719 13.074219 41.121094 13.046875 C 40.957031 12.808594 40.703125 12.703125 40.449219 12.59375 C 39.953125 12.386719 39.476562 12.152344 39.261719 11.625 C 39.125 11.261719 39.179688 10.910156 39.335938 10.554688 C 39.46875 10.289062 39.660156 10.058594 39.863281 9.839844 C 39.867188 9.832031 39.867188 9.832031 39.894531 9.800781 C 39.980469 9.714844 40.070312 9.640625 40.164062 9.566406 C 40.195312 9.539062 40.230469 9.511719 40.261719 9.484375 C 40.613281 9.191406 41.015625 8.96875 41.425781 8.769531 C 41.472656 8.746094 41.515625 8.726562 41.558594 8.703125 C 43.027344 7.976562 44.746094 7.6875 46.363281 7.5625 C 46.40625 7.558594 46.453125 7.554688 46.5 7.550781 C 47.191406 7.496094 47.882812 7.492188 48.574219 7.578125 C 48.617188 7.582031 48.65625 7.585938 48.699219 7.589844 C 49.363281 7.667969 50.167969 7.828125 50.679688 8.292969 C 50.683594 8.296875 50.683594 8.296875 50.714844 8.324219 C 50.886719 8.472656 50.976562 8.710938 51 8.933594 C 51.03125 9.464844 50.828125 9.929688 50.480469 10.324219 C 50.421875 10.390625 50.363281 10.453125 50.300781 10.515625 C 50.285156 10.53125 50.269531 10.546875 50.253906 10.5625 C 50.164062 10.65625 50.066406 10.742188 49.964844 10.824219 C 49.921875 10.855469 49.882812 10.890625 49.84375 10.921875 C 49.003906 11.625 47.992188 12.082031 46.949219 12.390625 C 46.390625 12.558594 45.902344 12.761719 45.5625 13.265625 C 45.53125 13.324219 45.535156 13.367188 45.539062 13.433594 C 45.617188 13.453125 45.671875 13.449219 45.753906 13.433594 C 45.777344 13.425781 45.796875 13.421875 45.820312 13.417969 C 45.84375 13.410156 45.867188 13.40625 45.894531 13.402344 C 45.917969 13.394531 45.945312 13.390625 45.96875 13.382812 C 46.042969 13.367188 46.117188 13.351562 46.191406 13.332031 C 46.210938 13.328125 46.230469 13.324219 46.25 13.320312 C 46.816406 13.1875 47.375 12.957031 47.90625 12.722656 C 47.957031 12.699219 48.011719 12.675781 48.0625 12.652344 C 48.277344 12.558594 48.480469 12.453125 48.6875 12.339844 C 48.769531 12.292969 48.851562 12.25 48.9375 12.207031 C 49.476562 11.929688 49.988281 11.578125 50.441406 11.167969 C 50.457031 11.15625 50.472656 11.140625 50.488281 11.125 C 51.121094 10.5625 51.738281 9.699219 51.828125 8.832031 C 51.84375 8.347656 51.667969 7.886719 51.34375 7.53125 C 51.308594 7.492188 51.269531 7.457031 51.234375 7.417969 C 51.21875 7.402344 51.203125 7.386719 51.1875 7.371094 C 50.960938 7.160156 50.699219 7.011719 50.421875 6.882812 C 50.398438 6.871094 50.378906 6.863281 50.355469 6.851562 C 49.773438 6.589844 49.144531 6.460938 48.515625 6.386719 C 48.496094 6.382812 48.476562 6.382812 48.457031 6.378906 C 46.917969 6.199219 45.273438 6.449219 43.792969 6.863281 Z M 52.882812 7.992188 C 52.765625 8.136719 52.667969 8.261719 52.683594 8.449219 C 52.691406 8.515625 52.707031 8.582031 52.722656 8.644531 C 52.726562 8.664062 52.730469 8.683594 52.734375 8.703125 C 52.757812 8.8125 52.785156 8.921875 52.8125 9.027344 C 52.820312 9.070312 52.832031 9.113281 52.839844 9.15625 C 52.855469 9.210938 52.867188 9.265625 52.882812 9.320312 C 52.988281 9.757812 53.039062 10.203125 53.09375 10.648438 C 53.101562 10.722656 53.113281 10.796875 53.121094 10.867188 C 53.125 10.914062 53.132812 10.960938 53.136719 11.003906 C 53.140625 11.015625 53.140625 11.015625 53.144531 11.066406 C 53.148438 11.082031 53.148438 11.101562 53.152344 11.121094 C 53.160156 11.167969 53.167969 11.21875 53.179688 11.269531 C 53.3125 11.222656 53.394531 11.136719 53.476562 11.027344 C 53.488281 11.011719 53.496094 11 53.507812 10.988281 C 53.527344 10.964844 53.546875 10.9375 53.566406 10.910156 C 53.59375 10.871094 53.625 10.832031 53.65625 10.796875 C 54.066406 10.261719 54.460938 9.558594 54.488281 8.867188 C 54.488281 8.851562 54.488281 8.835938 54.492188 8.816406 C 54.5 8.410156 54.410156 8 54.128906 7.691406 C 54.011719 7.585938 53.871094 7.550781 53.71875 7.550781 C 53.390625 7.578125 53.09375 7.75 52.882812 7.992188 Z M 41.46875 9.820312 C 41.460938 9.828125 41.460938 9.828125 41.417969 9.859375 C 41.355469 9.910156 41.316406 9.945312 41.285156 10.019531 C 41.289062 10.078125 41.289062 10.078125 41.320312 10.136719 C 41.371094 10.175781 41.371094 10.175781 41.429688 10.179688 C 41.542969 10.15625 41.632812 10.082031 41.726562 10.019531 C 41.765625 9.992188 41.808594 9.964844 41.847656 9.9375 C 41.867188 9.921875 41.890625 9.910156 41.910156 9.894531 C 42.082031 9.78125 42.257812 9.6875 42.453125 9.617188 C 42.460938 9.613281 42.460938 9.613281 42.503906 9.597656 C 42.625 9.554688 42.75 9.511719 42.871094 9.46875 C 42.878906 9.464844 42.878906 9.464844 42.925781 9.449219 C 42.933594 9.445312 42.933594 9.445312 42.980469 9.429688 C 42.996094 9.421875 43.015625 9.417969 43.03125 9.410156 C 43.070312 9.398438 43.105469 9.386719 43.140625 9.371094 C 43.6875 9.183594 43.6875 9.183594 43.773438 9.046875 C 43.78125 8.984375 43.78125 8.984375 43.773438 8.925781 C 43.714844 8.871094 43.65625 8.863281 43.582031 8.855469 C 42.871094 8.878906 42.023438 9.398438 41.46875 9.820312 Z M 52.265625 9.742188 C 52.179688 9.847656 52.121094 9.96875 52.054688 10.085938 C 51.894531 10.378906 51.703125 10.652344 51.492188 10.910156 C 51.484375 10.921875 51.472656 10.933594 51.464844 10.945312 C 51.246094 11.214844 51 11.472656 50.726562 11.6875 C 50.679688 11.726562 50.632812 11.765625 50.589844 11.808594 C 50.230469 12.132812 49.804688 12.40625 49.386719 12.65625 C 49.371094 12.667969 49.351562 12.679688 49.332031 12.691406 C 49.035156 12.871094 48.730469 13.03125 48.414062 13.175781 C 48.40625 13.179688 48.40625 13.179688 48.355469 13.199219 C 48 13.359375 47.636719 13.492188 47.269531 13.617188 C 47.238281 13.625 47.210938 13.636719 47.179688 13.644531 C 46.726562 13.800781 46.277344 13.921875 45.804688 14.011719 C 45.785156 14.015625 45.765625 14.019531 45.742188 14.023438 C 45.640625 14.042969 45.535156 14.0625 45.433594 14.082031 C 45.394531 14.089844 45.355469 14.097656 45.316406 14.105469 C 45.300781 14.109375 45.28125 14.113281 45.265625 14.117188 C 45.058594 14.15625 44.925781 14.207031 44.804688 14.382812 C 44.429688 14.984375 44.273438 15.785156 44.246094 16.488281 C 44.246094 16.511719 44.246094 16.53125 44.246094 16.554688 C 44.234375 17.210938 44.378906 17.921875 44.703125 18.492188 C 44.710938 18.503906 44.71875 18.519531 44.726562 18.53125 C 44.921875 18.894531 45.21875 19.203125 45.617188 19.332031 C 45.738281 19.359375 45.855469 19.371094 45.976562 19.371094 C 45.992188 19.371094 46.007812 19.371094 46.023438 19.371094 C 47.070312 19.378906 48.097656 19.152344 49.050781 18.710938 C 49.066406 18.703125 49.085938 18.695312 49.101562 18.6875 C 49.644531 18.433594 50.128906 18.09375 50.578125 17.699219 C 50.59375 17.6875 50.605469 17.675781 50.621094 17.664062 C 50.660156 17.628906 50.699219 17.59375 50.738281 17.558594 C 50.757812 17.542969 50.773438 17.527344 50.792969 17.507812 C 52.015625 16.410156 52.511719 14.773438 52.621094 13.179688 C 52.628906 13.015625 52.625 12.851562 52.625 12.6875 C 52.625 12.625 52.628906 12.5625 52.628906 12.5 C 52.628906 12 52.578125 11.511719 52.507812 11.015625 C 52.5 10.964844 52.492188 10.914062 52.484375 10.863281 C 52.449219 10.597656 52.410156 10.328125 52.367188 10.058594 C 52.367188 10.046875 52.367188 10.046875 52.355469 9.988281 C 52.351562 9.964844 52.347656 9.945312 52.34375 9.921875 C 52.34375 9.902344 52.339844 9.886719 52.335938 9.867188 C 52.324219 9.820312 52.308594 9.78125 52.285156 9.742188 C 52.277344 9.742188 52.273438 9.742188 52.265625 9.742188 Z M 67.488281 10.136719 C 67.433594 10.253906 67.390625 10.367188 67.359375 10.496094 C 67.355469 10.511719 67.351562 10.527344 67.347656 10.542969 C 67.332031 10.597656 67.320312 10.652344 67.304688 10.707031 C 67.296875 10.746094 67.285156 10.785156 67.277344 10.824219 C 67.257812 10.902344 67.238281 10.980469 67.21875 11.058594 C 67.195312 11.144531 67.175781 11.226562 67.152344 11.3125 C 67.0625 11.667969 66.984375 12.019531 66.914062 12.378906 C 66.910156 12.398438 66.90625 12.417969 66.902344 12.4375 C 66.78125 13.011719 66.78125 13.011719 66.832031 13.113281 C 66.882812 13.167969 66.941406 13.191406 67.015625 13.195312 C 67.023438 13.195312 67.023438 13.195312 67.0625 13.195312 C 67.082031 13.195312 67.101562 13.195312 67.121094 13.195312 C 67.140625 13.195312 67.164062 13.195312 67.183594 13.195312 C 67.195312 13.195312 67.195312 13.195312 67.25 13.195312 C 67.320312 13.195312 67.394531 13.195312 67.46875 13.195312 C 67.480469 13.195312 67.496094 13.195312 67.507812 13.191406 C 67.59375 13.191406 67.679688 13.191406 67.765625 13.1875 C 67.792969 13.1875 67.820312 13.1875 67.847656 13.1875 C 68.132812 13.183594 68.132812 13.183594 68.242188 13.113281 C 68.308594 13.015625 68.308594 12.898438 68.292969 12.78125 C 68.28125 12.722656 68.265625 12.664062 68.246094 12.601562 C 68.242188 12.582031 68.234375 12.558594 68.226562 12.535156 C 68.207031 12.457031 68.183594 12.378906 68.164062 12.300781 C 68.15625 12.273438 68.144531 12.242188 68.136719 12.214844 C 68.121094 12.152344 68.105469 12.09375 68.085938 12.03125 C 68.082031 12.015625 68.078125 12 68.074219 11.984375 C 68.0625 11.953125 68.054688 11.921875 68.046875 11.890625 C 67.964844 11.609375 67.890625 11.328125 67.816406 11.042969 C 67.8125 11.035156 67.8125 11.035156 67.800781 10.988281 C 67.746094 10.78125 67.695312 10.578125 67.65625 10.371094 C 67.636719 10.285156 67.609375 10.214844 67.566406 10.136719 C 67.542969 10.136719 67.515625 10.136719 67.488281 10.136719 Z M 55.082031 12.121094 C 55.050781 12.15625 55.015625 12.195312 54.984375 12.230469 C 54.886719 12.339844 54.785156 12.441406 54.683594 12.546875 C 54.667969 12.558594 54.65625 12.570312 54.644531 12.585938 C 54.566406 12.664062 54.488281 12.734375 54.40625 12.804688 C 54.363281 12.839844 54.324219 12.878906 54.285156 12.917969 C 54.019531 13.15625 53.703125 13.332031 53.378906 13.476562 C 53.363281 13.484375 53.347656 13.492188 53.328125 13.5 C 53.316406 13.507812 53.304688 13.511719 53.289062 13.519531 C 53.210938 13.597656 53.207031 13.765625 53.191406 13.871094 C 53.1875 13.902344 53.183594 13.933594 53.179688 13.964844 C 53.175781 13.980469 53.171875 13.996094 53.171875 14.011719 C 53.046875 14.84375 52.847656 15.664062 52.445312 16.410156 C 52.441406 16.414062 52.441406 16.414062 52.421875 16.453125 C 52.246094 16.773438 52.0625 17.078125 51.828125 17.363281 C 51.8125 17.378906 51.800781 17.398438 51.785156 17.417969 C 51.71875 17.496094 51.65625 17.574219 51.585938 17.652344 C 51.578125 17.664062 51.566406 17.679688 51.554688 17.691406 C 51.53125 17.714844 51.511719 17.738281 51.488281 17.765625 C 51.445312 17.816406 51.414062 17.851562 51.390625 17.917969 C 51.582031 17.980469 51.84375 17.902344 52.035156 17.871094 C 52.359375 17.820312 52.683594 17.777344 53.007812 17.746094 C 53.027344 17.742188 53.046875 17.742188 53.066406 17.738281 C 53.195312 17.726562 53.328125 17.710938 53.457031 17.699219 C 53.5625 17.6875 53.664062 17.675781 53.769531 17.667969 C 53.789062 17.664062 53.8125 17.664062 53.832031 17.660156 C 53.996094 17.644531 54.175781 17.621094 54.296875 17.503906 C 54.414062 17.355469 54.472656 17.1875 54.515625 17.007812 C 54.519531 16.992188 54.527344 16.972656 54.53125 16.957031 C 54.585938 16.722656 54.617188 16.484375 54.652344 16.25 C 54.660156 16.199219 54.667969 16.144531 54.675781 16.09375 C 54.699219 15.933594 54.722656 15.773438 54.746094 15.613281 C 54.75 15.589844 54.753906 15.566406 54.757812 15.539062 C 54.855469 14.847656 54.941406 14.152344 55.011719 13.457031 C 55.023438 13.359375 55.03125 13.257812 55.042969 13.15625 C 55.117188 12.460938 55.117188 12.460938 55.105469 12.121094 C 55.097656 12.121094 55.089844 12.121094 55.082031 12.121094 Z M 38.613281 13.054688 C 38.605469 13.203125 38.617188 13.339844 38.652344 13.488281 C 38.652344 13.496094 38.652344 13.496094 38.664062 13.550781 C 38.808594 14.207031 39.011719 14.839844 39.285156 15.457031 C 39.296875 15.476562 39.304688 15.5 39.316406 15.519531 C 39.417969 15.753906 39.527344 15.984375 39.644531 16.210938 C 39.664062 16.253906 39.6875 16.296875 39.707031 16.339844 C 39.882812 16.6875 40.089844 17.019531 40.339844 17.320312 C 40.347656 17.332031 40.355469 17.34375 40.363281 17.351562 C 40.621094 17.671875 40.914062 17.964844 41.25 18.203125 C 41.292969 18.234375 41.332031 18.265625 41.375 18.296875 C 41.546875 18.421875 41.722656 18.53125 41.90625 18.632812 C 41.945312 18.652344 41.980469 18.671875 42.015625 18.691406 C 42.605469 19.023438 43.363281 19.308594 44.050781 19.304688 C 44.070312 19.300781 44.089844 19.292969 44.109375 19.285156 C 44.082031 19.179688 44.035156 19.113281 43.96875 19.027344 C 43.957031 19.015625 43.945312 19 43.9375 18.984375 C 43.902344 18.941406 43.867188 18.894531 43.832031 18.851562 C 42.972656 17.738281 42.5 16.640625 42.183594 15.28125 C 42.03125 14.632812 42.03125 14.632812 41.90625 14.441406 C 41.894531 14.421875 41.878906 14.398438 41.867188 14.378906 C 41.789062 14.273438 41.699219 14.230469 41.574219 14.195312 C 41.558594 14.191406 41.546875 14.1875 41.53125 14.183594 C 41.382812 14.140625 41.230469 14.113281 41.078125 14.085938 C 40.621094 14.007812 40.1875 13.890625 39.753906 13.710938 C 39.707031 13.691406 39.660156 13.671875 39.613281 13.65625 C 39.308594 13.539062 39.042969 13.375 38.789062 13.175781 C 38.757812 13.148438 38.726562 13.125 38.695312 13.101562 C 38.683594 13.09375 38.671875 13.085938 38.660156 13.074219 C 38.632812 13.054688 38.632812 13.054688 38.613281 13.054688 Z M 34.425781 23.851562 C 34.410156 23.863281 34.398438 23.875 34.382812 23.890625 C 33.976562 24.277344 33.542969 24.800781 33.523438 25.394531 C 33.527344 25.535156 33.574219 25.65625 33.648438 25.777344 C 33.757812 25.878906 33.859375 25.886719 34.003906 25.882812 C 34.171875 25.863281 34.292969 25.757812 34.402344 25.636719 C 34.859375 25.054688 34.917969 24.160156 34.898438 23.453125 C 34.769531 23.453125 34.519531 23.757812 34.425781 23.851562 Z M 34.425781 23.851562 " fill-opacity="1" fill-rule="nonzero"/><path fill="#be582a" d="M 31.632812 7.074219 C 31.648438 7.074219 31.648438 7.074219 31.707031 7.074219 C 32.097656 7.082031 32.527344 7.132812 32.855469 7.359375 C 32.867188 7.367188 32.878906 7.375 32.890625 7.382812 C 32.992188 7.453125 33.042969 7.5625 33.0625 7.683594 C 33.066406 7.738281 33.066406 7.789062 33.066406 7.84375 C 33.066406 7.863281 33.066406 7.886719 33.066406 7.90625 C 33.058594 8.175781 33.027344 8.441406 33 8.703125 C 32.964844 9.042969 32.941406 9.378906 32.9375 9.722656 C 32.9375 9.738281 32.9375 9.753906 32.9375 9.769531 C 32.9375 9.800781 32.9375 9.828125 32.9375 9.855469 C 32.9375 9.945312 32.933594 10.03125 32.929688 10.117188 C 32.914062 10.328125 32.914062 10.535156 32.914062 10.742188 C 32.914062 10.777344 32.914062 10.816406 32.914062 10.851562 C 32.914062 10.925781 32.914062 11.003906 32.914062 11.078125 C 32.914062 11.171875 32.914062 11.269531 32.914062 11.363281 C 32.914062 11.945312 32.917969 12.527344 32.96875 13.109375 C 32.972656 13.167969 32.976562 13.226562 32.980469 13.285156 C 33.011719 13.621094 33.042969 13.960938 33.128906 14.285156 C 33.132812 14.304688 33.136719 14.324219 33.144531 14.347656 C 33.21875 14.625 33.316406 14.90625 33.492188 15.140625 C 33.503906 15.15625 33.515625 15.171875 33.527344 15.1875 C 33.648438 15.332031 33.824219 15.476562 34.019531 15.503906 C 34.171875 15.503906 34.304688 15.484375 34.421875 15.382812 C 34.800781 14.984375 34.863281 14.289062 34.863281 13.769531 C 34.863281 13.746094 34.863281 13.722656 34.863281 13.699219 C 34.863281 13.398438 34.851562 13.097656 34.835938 12.796875 C 34.835938 12.75 34.832031 12.699219 34.832031 12.648438 C 34.8125 12.117188 34.78125 11.585938 34.742188 11.054688 C 34.679688 10.128906 34.664062 9.203125 34.695312 8.277344 C 34.695312 8.230469 34.699219 8.183594 34.699219 8.140625 C 34.699219 8.074219 34.703125 8.011719 34.707031 7.949219 C 34.707031 7.929688 34.707031 7.910156 34.707031 7.890625 C 34.710938 7.769531 34.734375 7.675781 34.800781 7.578125 C 34.839844 7.546875 34.839844 7.546875 34.878906 7.527344 C 34.890625 7.523438 34.902344 7.515625 34.917969 7.511719 C 35.03125 7.476562 35.140625 7.476562 35.257812 7.476562 C 35.265625 7.476562 35.265625 7.476562 35.304688 7.476562 C 35.394531 7.476562 35.484375 7.480469 35.574219 7.488281 C 35.679688 7.496094 35.78125 7.5 35.882812 7.5 C 35.898438 7.5 35.914062 7.5 35.929688 7.503906 C 35.988281 7.503906 36.050781 7.503906 36.109375 7.503906 C 36.503906 7.507812 36.503906 7.507812 36.644531 7.628906 C 36.761719 7.753906 36.804688 7.90625 36.8125 8.074219 C 36.8125 8.09375 36.816406 8.109375 36.816406 8.128906 C 36.816406 8.152344 36.820312 8.171875 36.820312 8.191406 C 36.820312 8.214844 36.824219 8.234375 36.824219 8.257812 C 36.828125 8.324219 36.832031 8.394531 36.835938 8.460938 C 36.839844 8.527344 36.84375 8.597656 36.847656 8.664062 C 36.847656 8.707031 36.851562 8.75 36.855469 8.789062 C 36.859375 8.886719 36.867188 8.984375 36.875 9.082031 C 36.886719 9.214844 36.890625 9.34375 36.894531 9.472656 C 36.894531 9.511719 36.894531 9.554688 36.894531 9.59375 C 36.898438 9.636719 36.898438 9.679688 36.898438 9.722656 C 36.914062 10.277344 36.933594 10.828125 36.960938 11.382812 C 37.007812 12.308594 37.046875 13.234375 37.046875 14.160156 C 37.046875 14.203125 37.046875 14.246094 37.050781 14.289062 C 37.050781 14.710938 37.042969 15.128906 36.957031 15.542969 C 36.953125 15.566406 36.949219 15.585938 36.945312 15.609375 C 36.839844 16.117188 36.652344 16.570312 36.308594 16.964844 C 36.300781 16.976562 36.292969 16.984375 36.28125 16.996094 C 36.128906 17.171875 35.964844 17.324219 35.773438 17.460938 C 35.761719 17.46875 35.75 17.476562 35.738281 17.488281 C 35.132812 17.921875 34.398438 18.042969 33.667969 17.9375 C 33.097656 17.839844 32.601562 17.5625 32.179688 17.164062 C 32.171875 17.152344 32.164062 17.144531 32.152344 17.136719 C 32 16.992188 31.867188 16.839844 31.746094 16.667969 C 31.738281 16.65625 31.726562 16.644531 31.71875 16.632812 C 31.410156 16.191406 31.195312 15.722656 31.070312 15.199219 C 31.066406 15.183594 31.0625 15.171875 31.0625 15.160156 C 30.976562 14.808594 30.90625 14.460938 30.855469 14.105469 C 30.851562 14.078125 30.847656 14.054688 30.84375 14.027344 C 30.777344 13.5625 30.765625 13.09375 30.75 12.625 C 30.75 12.570312 30.746094 12.515625 30.746094 12.460938 C 30.734375 12.136719 30.730469 11.8125 30.734375 11.488281 C 30.734375 11.464844 30.734375 11.445312 30.734375 11.421875 C 30.734375 11.253906 30.734375 11.082031 30.738281 10.914062 C 30.738281 10.898438 30.738281 10.886719 30.738281 10.871094 C 30.75 10.191406 30.78125 9.515625 30.816406 8.835938 C 30.832031 8.585938 30.835938 8.332031 30.839844 8.082031 C 30.851562 7.425781 30.851562 7.425781 31.023438 7.242188 C 31.203125 7.097656 31.410156 7.066406 31.632812 7.074219 Z M 31.632812 7.074219 " fill-opacity="1" fill-rule="nonzero"/><path fill="#be582a" d="M 76.558594 7.597656 C 76.683594 7.726562 76.683594 7.867188 76.683594 8.039062 C 76.683594 8.0625 76.683594 8.082031 76.683594 8.105469 C 76.679688 8.394531 76.644531 8.675781 76.605469 8.960938 C 76.597656 9.019531 76.59375 9.078125 76.585938 9.136719 C 76.578125 9.195312 76.570312 9.25 76.5625 9.308594 C 76.558594 9.347656 76.554688 9.386719 76.550781 9.429688 C 76.480469 9.941406 76.480469 9.941406 76.289062 10.105469 C 76.195312 10.160156 76.101562 10.175781 75.996094 10.1875 C 75.976562 10.191406 75.957031 10.195312 75.941406 10.195312 C 75.703125 10.226562 75.464844 10.238281 75.222656 10.25 C 74.648438 10.28125 74.648438 10.28125 74.550781 10.378906 C 74.507812 10.445312 74.5 10.488281 74.488281 10.570312 C 74.488281 10.574219 74.488281 10.574219 74.484375 10.609375 C 74.46875 10.761719 74.460938 10.917969 74.453125 11.074219 C 74.449219 11.089844 74.449219 11.105469 74.449219 11.121094 C 74.429688 11.519531 74.425781 11.917969 74.425781 12.316406 C 74.425781 12.378906 74.425781 12.441406 74.425781 12.5 C 74.425781 13.484375 74.464844 14.472656 74.542969 15.453125 C 74.554688 15.574219 74.558594 15.695312 74.5625 15.816406 C 74.566406 15.839844 74.566406 15.863281 74.566406 15.882812 C 74.59375 16.613281 74.617188 17.347656 74.582031 18.078125 C 74.578125 18.117188 74.578125 18.15625 74.574219 18.199219 C 74.566406 18.371094 74.53125 18.476562 74.40625 18.597656 C 74.28125 18.679688 74.164062 18.707031 74.019531 18.726562 C 74 18.726562 73.980469 18.730469 73.964844 18.730469 C 73.761719 18.757812 73.570312 18.757812 73.367188 18.742188 C 73.285156 18.734375 73.203125 18.730469 73.117188 18.726562 C 73.097656 18.726562 73.074219 18.726562 73.054688 18.726562 C 73.011719 18.722656 72.96875 18.722656 72.925781 18.722656 C 72.636719 18.714844 72.636719 18.714844 72.527344 18.613281 C 72.519531 18.597656 72.511719 18.585938 72.5 18.570312 C 72.492188 18.554688 72.484375 18.542969 72.476562 18.527344 C 72.300781 18.15625 72.320312 17.71875 72.324219 17.316406 C 72.324219 17.265625 72.324219 17.214844 72.324219 17.164062 C 72.324219 17.042969 72.328125 16.921875 72.328125 16.804688 C 72.328125 16.578125 72.328125 16.351562 72.328125 16.125 C 72.332031 16.074219 72.332031 16.019531 72.332031 15.96875 C 72.332031 15.691406 72.332031 15.417969 72.320312 15.140625 C 72.308594 14.832031 72.3125 14.523438 72.3125 14.214844 C 72.3125 14.203125 72.3125 14.191406 72.3125 14.175781 C 72.316406 13.941406 72.320312 13.703125 72.320312 13.46875 C 72.328125 12.847656 72.332031 12.222656 72.324219 11.601562 C 72.324219 11.574219 72.324219 11.550781 72.324219 11.527344 C 72.320312 11.296875 72.3125 11.070312 72.292969 10.839844 C 72.292969 10.832031 72.292969 10.832031 72.289062 10.792969 C 72.253906 10.460938 72.253906 10.460938 72.191406 10.355469 C 71.839844 10.191406 71.414062 10.203125 71.035156 10.1875 C 70.539062 10.164062 70.539062 10.164062 70.359375 9.972656 C 70.230469 9.808594 70.222656 9.613281 70.210938 9.414062 C 70.210938 9.402344 70.210938 9.402344 70.207031 9.351562 C 70.203125 9.289062 70.199219 9.222656 70.195312 9.160156 C 70.191406 9.097656 70.1875 9.03125 70.183594 8.96875 C 70.183594 8.929688 70.179688 8.890625 70.179688 8.851562 C 70.171875 8.761719 70.164062 8.671875 70.15625 8.585938 C 70.144531 8.460938 70.140625 8.339844 70.140625 8.214844 C 70.140625 8.1875 70.140625 8.160156 70.140625 8.128906 C 70.132812 7.953125 70.140625 7.804688 70.246094 7.65625 C 70.367188 7.539062 70.496094 7.550781 70.652344 7.554688 C 70.75 7.554688 70.847656 7.566406 70.945312 7.578125 C 71.324219 7.625 71.699219 7.621094 72.078125 7.617188 C 72.160156 7.617188 72.238281 7.617188 72.320312 7.617188 C 73.019531 7.609375 73.714844 7.601562 74.414062 7.5625 C 74.570312 7.554688 74.726562 7.550781 74.878906 7.546875 C 75.046875 7.542969 75.207031 7.535156 75.371094 7.519531 C 76.332031 7.421875 76.332031 7.421875 76.558594 7.597656 Z M 76.558594 7.597656 " fill-opacity="1" fill-rule="nonzero"/><path fill="#be582a" d="M 82.035156 7.953125 C 82.273438 8.195312 82.296875 8.484375 82.332031 8.808594 C 82.332031 8.816406 82.332031 8.816406 82.339844 8.855469 C 82.355469 9.019531 82.355469 9.179688 82.355469 9.339844 C 82.355469 9.386719 82.355469 9.4375 82.355469 9.484375 C 82.359375 9.804688 82.351562 10.105469 82.136719 10.359375 C 81.992188 10.480469 81.871094 10.484375 81.6875 10.476562 C 81.140625 10.457031 80.59375 10.511719 80.050781 10.554688 C 80.03125 10.554688 80.011719 10.558594 79.992188 10.558594 C 79.890625 10.566406 79.789062 10.574219 79.683594 10.585938 C 79.660156 10.585938 79.640625 10.589844 79.617188 10.589844 C 79.242188 10.628906 79.242188 10.628906 79.167969 10.703125 C 79.046875 10.898438 79.027344 11.179688 78.992188 11.402344 C 78.992188 11.421875 78.988281 11.445312 78.984375 11.46875 C 78.925781 11.851562 78.925781 11.851562 78.976562 11.96875 C 79.105469 12.078125 79.300781 12.042969 79.453125 12.035156 C 79.507812 12.03125 79.558594 12.03125 79.609375 12.027344 C 79.621094 12.027344 79.636719 12.027344 79.648438 12.027344 C 79.882812 12.019531 80.117188 12.019531 80.351562 12.019531 C 80.421875 12.019531 80.492188 12.019531 80.566406 12.019531 C 80.621094 12.019531 80.675781 12.019531 80.734375 12.019531 C 80.773438 12.019531 80.8125 12.019531 80.847656 12.019531 C 81.328125 12.019531 81.328125 12.019531 81.460938 12.140625 C 81.617188 12.3125 81.566406 12.582031 81.5625 12.800781 C 81.550781 13.078125 81.503906 13.359375 81.421875 13.625 C 81.417969 13.640625 81.414062 13.65625 81.40625 13.671875 C 81.363281 13.808594 81.289062 13.902344 81.160156 13.972656 C 81.03125 14.023438 80.898438 14.03125 80.761719 14.035156 C 80.722656 14.035156 80.6875 14.035156 80.652344 14.035156 C 80.632812 14.035156 80.617188 14.035156 80.597656 14.035156 C 80.230469 14.039062 79.867188 14.054688 79.5 14.085938 C 79.46875 14.085938 79.433594 14.089844 79.398438 14.09375 C 79.390625 14.09375 79.390625 14.09375 79.351562 14.097656 C 79.257812 14.105469 79.164062 14.109375 79.070312 14.113281 C 79.050781 14.113281 79.03125 14.113281 79.007812 14.113281 C 78.972656 14.113281 78.9375 14.113281 78.898438 14.113281 C 78.828125 14.113281 78.789062 14.121094 78.734375 14.167969 C 78.648438 14.324219 78.648438 14.5 78.636719 14.675781 C 78.632812 14.703125 78.632812 14.730469 78.628906 14.757812 C 78.625 14.816406 78.621094 14.875 78.617188 14.9375 C 78.609375 15.011719 78.605469 15.085938 78.597656 15.160156 C 78.59375 15.21875 78.589844 15.277344 78.585938 15.335938 C 78.582031 15.363281 78.582031 15.390625 78.578125 15.417969 C 78.542969 15.902344 78.542969 15.902344 78.621094 16.011719 C 78.710938 16.097656 78.824219 16.074219 78.9375 16.070312 C 79.007812 16.070312 79.074219 16.0625 79.144531 16.058594 C 79.183594 16.054688 79.222656 16.054688 79.261719 16.050781 C 79.320312 16.046875 79.382812 16.042969 79.441406 16.039062 C 80.066406 15.996094 80.695312 15.988281 81.320312 15.996094 C 81.40625 16 81.492188 16 81.574219 16 C 81.640625 16 81.707031 16 81.773438 16.003906 C 81.804688 16.003906 81.835938 16.003906 81.867188 16.003906 C 82.1875 16.007812 82.480469 16.023438 82.726562 16.25 C 83.023438 16.574219 83.039062 17.015625 83.023438 17.433594 C 83 17.921875 82.863281 18.519531 82.492188 18.867188 C 82.296875 19.03125 82.09375 19.054688 81.84375 19.0625 C 81.832031 19.0625 81.820312 19.0625 81.804688 19.0625 C 80.546875 19.097656 79.277344 18.96875 78.027344 18.84375 C 77.8125 18.824219 77.601562 18.804688 77.386719 18.789062 C 77.375 18.789062 77.375 18.789062 77.3125 18.785156 C 77.191406 18.777344 77.074219 18.769531 76.953125 18.761719 C 76.910156 18.757812 76.867188 18.753906 76.820312 18.75 C 76.800781 18.75 76.78125 18.75 76.761719 18.746094 C 76.601562 18.734375 76.414062 18.71875 76.300781 18.59375 C 75.859375 17.863281 76.253906 16.257812 76.320312 15.464844 C 76.339844 15.257812 76.355469 15.046875 76.371094 14.839844 C 76.375 14.824219 76.375 14.808594 76.375 14.792969 C 76.390625 14.628906 76.402344 14.460938 76.414062 14.292969 C 76.429688 14.066406 76.449219 13.84375 76.472656 13.617188 C 76.488281 13.449219 76.503906 13.277344 76.519531 13.109375 C 76.59375 12.304688 76.675781 11.503906 76.773438 10.703125 C 76.777344 10.675781 76.78125 10.648438 76.785156 10.617188 C 76.835938 10.167969 76.894531 9.71875 76.972656 9.273438 C 76.972656 9.265625 76.972656 9.265625 76.980469 9.230469 C 76.992188 9.167969 77 9.109375 77.011719 9.050781 C 77.027344 8.964844 77.042969 8.882812 77.054688 8.800781 C 77.09375 8.570312 77.136719 8.3125 77.332031 8.160156 C 77.582031 8.027344 77.910156 8.03125 78.1875 8.011719 C 78.230469 8.007812 78.273438 8.003906 78.320312 8 C 78.433594 7.988281 78.550781 7.980469 78.667969 7.96875 C 78.757812 7.960938 78.851562 7.953125 78.945312 7.945312 C 80.226562 7.835938 80.226562 7.835938 80.554688 7.820312 C 80.578125 7.820312 80.601562 7.820312 80.621094 7.820312 C 80.667969 7.816406 80.710938 7.816406 80.757812 7.8125 C 80.824219 7.8125 80.894531 7.808594 80.960938 7.804688 C 81.816406 7.773438 81.816406 7.773438 82.035156 7.953125 Z M 82.035156 7.953125 " fill-opacity="1" fill-rule="nonzero"/><path fill="#be582a" d="M 51.808594 14.246094 C 51.835938 14.246094 51.863281 14.246094 51.890625 14.246094 C 51.949219 14.363281 51.90625 14.539062 51.878906 14.664062 C 51.875 14.683594 51.871094 14.699219 51.867188 14.714844 C 51.667969 15.636719 51.167969 16.367188 50.558594 17.0625 C 50.550781 17.074219 50.539062 17.085938 50.53125 17.09375 C 50.429688 17.210938 50.324219 17.320312 50.207031 17.421875 C 50.195312 17.429688 50.1875 17.4375 50.175781 17.449219 C 50.101562 17.507812 50.027344 17.554688 49.945312 17.597656 C 49.894531 17.59375 49.894531 17.59375 49.863281 17.578125 C 49.871094 17.363281 50.121094 17.171875 50.261719 17.023438 C 50.910156 16.332031 51.371094 15.5625 51.613281 14.640625 C 51.652344 14.488281 51.695312 14.359375 51.808594 14.246094 Z M 51.808594 14.246094 " fill-opacity="1" fill-rule="nonzero"/><path fill="#be582a" d="M 49.824219 17.539062 C 49.84375 17.597656 49.84375 17.597656 49.820312 17.648438 C 49.78125 17.703125 49.742188 17.734375 49.6875 17.773438 C 49.671875 17.785156 49.65625 17.796875 49.636719 17.808594 C 49.585938 17.839844 49.546875 17.851562 49.488281 17.859375 C 49.460938 17.816406 49.460938 17.816406 49.449219 17.757812 C 49.5 17.652344 49.574219 17.589844 49.675781 17.535156 C 49.734375 17.519531 49.769531 17.523438 49.824219 17.539062 Z M 49.824219 17.539062 " fill-opacity="1" fill-rule="nonzero"/></svg>