<svg version="1.1" xmlns="http://www.w3.org/2000/svg" width="4096" height="4096"><rect width="100%" height="100%" fill="#FAF7F2"/>
<path d="M0 0 C0.827 0.126 1.655 0.253 2.507 0.383 C20.817 3.218 37.317 6.317 49.75 21.25 C77.514 59.674 81.622 112.183 89.67 157.557 C98.015 204.587 106.998 251.484 117.312 298.125 C117.682 299.799 118.051 301.473 118.42 303.147 C118.602 303.976 118.785 304.805 118.973 305.659 C119.343 307.335 119.712 309.011 120.081 310.687 C121.005 314.88 121.933 319.073 122.868 323.264 C131.529 362.229 137.973 401.588 144.654 440.929 C150.95 477.997 157.823 514.911 165.515 551.717 C166.275 555.361 167.025 559.007 167.774 562.653 C168.294 565.162 168.828 567.669 169.363 570.175 C173.57 590.361 173.57 590.361 170.688 599.688 C165.051 607.142 158.708 610.26 149.586 611.776 C145.691 612.257 141.882 612.394 137.965 612.383 C137.235 612.384 136.504 612.386 135.752 612.387 C133.397 612.389 131.042 612.383 128.688 612.375 C128.286 612.374 128.286 612.374 126.256 612.369 C116.523 612.342 106.79 612.289 97.062 611.938 C96.229 611.915 95.396 611.893 94.537 611.87 C82.762 611.331 74.798 606.604 66.738 598.137 C62.784 593.17 60.875 588.074 59.252 582.037 C59.038 581.249 58.823 580.461 58.602 579.649 C56.369 571.194 54.9 562.655 53.523 554.027 C53.247 552.345 52.97 550.663 52.692 548.98 C51.971 544.604 51.262 540.226 50.555 535.847 C49.699 530.554 48.829 525.264 47.961 519.973 C47.285 515.852 46.611 511.73 45.944 507.607 C45.342 503.893 44.733 500.181 44.118 496.469 C43.866 494.95 43.616 493.43 43.368 491.91 C42.988 489.6 42.6 487.291 42.209 484.983 C42.097 484.29 41.985 483.598 41.869 482.884 C40.782 476.563 39.004 470.299 34.199 465.797 C29.364 462.389 24.792 462.059 19.082 461.977 C18.283 461.964 17.484 461.952 16.661 461.939 C13.962 461.906 11.262 461.888 8.562 461.875 C8.095 461.873 8.095 461.873 5.729 461.861 C-12.615 461.83 -30.833 462.966 -49.11 464.396 C-51.239 464.562 -53.368 464.724 -55.498 464.886 C-59.542 465.195 -63.583 465.527 -67.625 465.863 C-68.823 465.957 -70.022 466.051 -71.257 466.148 C-90.866 467.866 -90.866 467.866 -95.25 472.25 C-95.868 474.153 -95.868 474.153 -96.387 476.512 C-96.584 477.401 -96.781 478.29 -96.984 479.207 C-97.189 480.181 -97.394 481.156 -97.605 482.16 C-97.824 483.182 -98.042 484.204 -98.266 485.257 C-100.595 496.461 -102.318 507.749 -104.016 519.063 C-119.734 623.36 -119.734 623.36 -139.621 640.266 C-147.274 645.583 -154.022 647.053 -163.25 646.25 C-169.503 645.12 -175.627 643.367 -181.75 641.688 C-182.173 641.574 -182.173 641.574 -184.312 640.997 C-209.049 634.33 -236.216 626.796 -250.25 603.25 C-261.369 581.911 -251.431 557.535 -245.562 535.938 C-245.246 534.769 -244.93 533.601 -244.605 532.398 C-243.651 528.876 -242.694 525.356 -241.734 521.836 C-241.445 520.772 -241.155 519.709 -240.857 518.613 C-238.257 509.135 -235.491 499.71 -232.5 490.348 C-229.522 481.015 -226.678 471.642 -223.814 462.274 C-222.818 459.017 -221.82 455.761 -220.822 452.505 C-218.054 443.467 -215.288 434.429 -212.598 425.367 C-212.402 424.709 -212.206 424.05 -212.004 423.372 C-211.156 420.516 -210.312 417.66 -209.479 414.8 C-207.869 409.355 -206.164 403.965 -204.319 398.595 C-198.56 381.789 -193.699 364.868 -189.14 347.708 C-187.903 343.052 -186.652 338.401 -185.397 333.75 C-185.187 332.97 -184.977 332.191 -184.76 331.388 C-184.338 329.824 -183.916 328.26 -183.494 326.696 C-182.872 324.388 -182.25 322.079 -181.628 319.77 C-166.833 264.832 -149.653 210.564 -132.534 156.312 C-128.398 143.207 -124.37 130.076 -120.457 116.903 C-97.018 38.046 -97.018 38.046 -76.25 15.25 C-75.611 14.484 -74.971 13.719 -74.312 12.93 C-55.152 -8.48 -25.511 -3.962 0 0 Z M-22.25 162.25 C-26.092 169.317 -28.746 176.317 -30.941 184.043 C-31.276 185.197 -31.611 186.351 -31.956 187.541 C-36.859 204.615 -41.313 221.816 -45.827 238.997 C-51.577 260.878 -57.563 282.634 -64.25 304.25 C-64.51 305.092 -64.769 305.934 -65.037 306.802 C-66.364 311.102 -67.711 315.395 -69.062 319.688 C-79.368 352.818 -79.368 352.818 -76.414 360.395 C-74.766 363.021 -72.908 364.074 -69.948 364.868 C-58.521 366.487 -46.304 365.008 -34.812 364.375 C-33.981 364.33 -33.15 364.285 -32.293 364.238 C-22.211 363.687 -12.129 363.116 -2.062 362.312 C-1.205 362.25 -0.348 362.188 0.535 362.124 C15.669 360.803 15.669 360.803 20.519 356.785 C22.292 354.575 22.526 353.085 22.75 350.25 C22.373 347.461 21.904 344.806 21.312 342.062 C21.135 341.207 20.957 340.352 20.774 339.471 C18.675 329.557 16.294 319.705 13.955 309.845 C7.53 282.741 1.735 255.538 -3.672 228.213 C-5.57 218.626 -7.479 209.041 -9.416 199.462 C-9.799 197.557 -10.181 195.652 -10.56 193.747 C-15.555 168.627 -15.555 168.627 -18.25 163.25 C-20.32 162.611 -20.32 162.611 -22.25 162.25 Z " fill="#BE582A" transform="translate(764.25,1424.75)"/>
<path d="M0 0 C0.986 0.544 1.972 1.088 2.988 1.648 C19.764 11.602 32.106 26.883 41 44 C41.608 45.163 42.217 46.325 42.844 47.523 C58.513 78.632 60.161 114.597 60.625 148.75 C60.663 151.116 60.702 153.482 60.742 155.848 C60.837 161.565 60.922 167.282 61 173 C64.772 169.338 67.592 165.737 70.188 161.188 C70.974 159.851 71.762 158.515 72.551 157.18 C73.771 155.098 74.99 153.017 76.208 150.935 C83.965 137.777 93.721 122.048 109 117 C117.611 115.928 124.955 116.719 132 122 C139.901 129.437 142.825 139.718 145.681 149.868 C148.061 158.293 150.945 166.396 154.189 174.523 C159.459 187.779 164.192 201.172 168.562 214.75 C168.83 215.58 169.097 216.411 169.373 217.267 C172.362 226.579 175.288 235.91 178.203 245.246 C187.325 274.447 187.325 274.447 191.438 285.375 C191.731 286.164 192.025 286.953 192.327 287.766 C197.324 300.573 197.324 300.573 202.812 303.5 C203.534 303.665 204.256 303.83 205 304 C208.684 298.373 211.798 292.612 214.711 286.555 C214.931 286.101 214.931 286.101 216.048 283.806 C216.998 281.85 217.946 279.894 218.893 277.937 C221.442 272.669 224.006 267.409 226.57 262.148 C227.099 261.064 227.627 259.979 228.172 258.862 C234.682 245.52 241.346 232.255 248.021 218.996 C253.63 207.839 259.093 196.622 264.453 185.344 C272.374 168.688 280.911 152.619 290.36 136.775 C291.892 134.183 293.387 131.575 294.867 128.953 C301.005 118.122 305.848 110.018 318.312 106.312 C328.399 105.14 337.082 106.898 346.387 111.07 C354.063 113.801 362.818 113.26 370.867 113.342 C378.71 113.575 384.2 115.2 389.812 120.812 C394.645 127.854 395.947 134.924 397.448 143.237 C398.073 146.688 398.723 150.135 399.375 153.582 C399.507 154.283 399.639 154.984 399.776 155.707 C401.344 163.939 403.194 172.105 405.083 180.269 C405.32 181.303 405.557 182.337 405.801 183.402 C406.009 184.294 406.217 185.186 406.431 186.105 C407.881 193.483 408.194 200.729 408.316 208.227 C408.337 209.333 408.358 210.439 408.38 211.578 C408.446 215.26 408.505 218.943 408.562 222.625 C408.584 223.915 408.605 225.204 408.627 226.533 C409.116 256.594 409.081 286.652 409.018 316.715 C408.984 332.768 408.976 348.822 408.973 364.875 C408.972 365.681 408.972 366.487 408.972 367.318 C408.964 399.346 409.117 431.37 409.405 463.397 C409.437 466.933 409.467 470.469 409.497 474.005 C409.748 503.011 410.234 532.003 411 561 C411.036 562.385 411.072 563.77 411.109 565.155 C411.197 568.499 411.285 571.843 411.375 575.188 C411.387 575.664 411.387 575.664 411.449 578.078 C411.633 584.021 412.436 589.942 416.396 594.665 C419.12 596.932 421.531 596.941 425 597 C431.679 593.988 433.662 588.441 436.173 581.984 C437.532 578.238 438.819 574.473 440.062 570.688 C440.298 569.973 440.533 569.258 440.776 568.521 C447.418 548.081 451.442 526.997 455.763 505.974 C457.448 497.798 459.242 489.647 461.062 481.5 C461.141 481.148 461.141 481.148 461.537 479.366 C464.647 465.4 467.885 451.463 471.149 437.531 C472.187 433.099 473.219 428.666 474.249 424.232 C474.785 421.925 475.322 419.62 475.861 417.314 C480.88 395.814 485.496 374.248 489.94 352.623 C496.788 319.311 504.089 286.191 512.267 253.177 C516.126 237.534 519.743 221.834 523.383 206.139 C523.925 203.804 524.467 201.47 525.009 199.135 C525.699 196.161 526.39 193.187 527.08 190.212 C527.749 187.329 528.418 184.445 529.089 181.562 C530.543 175.302 531.993 169.042 533.418 162.775 C539.555 135.798 539.555 135.798 544 122.812 C544.387 121.609 544.773 120.406 545.172 119.166 C549.854 105.218 557.638 92.055 571 85 C585.761 80.045 600.245 82.129 615.301 84.148 C619.98 84.766 624.657 85.279 629.355 85.727 C630.587 85.846 631.819 85.966 633.088 86.089 C635.46 86.315 637.833 86.53 640.207 86.734 C653.41 88.018 665.061 91.747 674.562 101.312 C683.129 111.824 687.406 126.243 692.06 138.771 C693.943 143.806 695.871 148.763 698.092 153.658 C704.059 166.876 708.042 180.06 711.5 194.125 C712.058 196.336 712.618 198.546 713.179 200.756 C714.554 206.182 715.912 211.613 717.264 217.046 C719.047 224.203 720.862 231.353 722.688 238.5 C722.776 238.848 722.776 238.848 723.226 240.611 C727.192 256.128 731.756 271.458 736.342 286.8 C743.796 311.737 750.572 336.755 756.781 362.031 C759.676 373.79 762.687 385.518 765.688 397.25 C769.537 412.31 773.354 427.378 777.098 442.465 C777.444 443.861 777.791 445.257 778.138 446.653 C778.223 446.999 778.223 446.999 778.657 448.748 C779.521 452.228 780.386 455.708 781.25 459.188 C781.335 459.53 781.335 459.53 781.766 461.264 C786.005 478.328 790.345 495.348 795.171 512.257 C798.244 523.024 800.868 533.844 803.316 544.769 C805.526 554.427 808.217 563.89 811.062 573.375 C814.046 583.342 817.014 593.302 819.625 603.375 C819.873 604.288 820.12 605.201 820.375 606.142 C822.288 613.725 823.702 622.189 820.438 629.5 C813.151 636.974 804.407 638.001 794.326 638.234 C785.124 638.302 775.932 637.742 766.75 637.188 C765.508 637.118 764.265 637.048 762.985 636.976 C747.786 635.965 728.199 633.585 717 622 C705.798 608.05 703.43 586.49 699.147 569.534 C698.362 566.424 697.57 563.316 696.774 560.208 C691.869 541.051 687.105 521.908 683.332 502.491 C679.809 484.912 679.809 484.912 674.062 481 C666.902 478.662 660.038 478.808 652.562 478.812 C651.904 478.812 651.245 478.812 650.566 478.811 C639.391 478.819 628.305 479.377 617.159 480.218 C607.213 480.963 597.28 481.367 587.308 481.57 C570.507 482.014 570.507 482.014 565.376 486.079 C562.567 489.532 561.502 492.785 560.473 497.023 C560.267 497.812 560.062 498.601 559.851 499.414 C558.16 506.032 556.697 512.703 555.245 519.378 C548.471 550.513 539.079 580.684 529.252 610.961 C527.786 615.495 526.383 620.04 525.045 624.613 C524.893 625.121 524.893 625.121 524.126 627.691 C523.574 629.552 523.037 631.418 522.52 633.289 C520.805 638.996 518.968 641.651 514 645 C507.425 648.298 500.114 649.433 492.902 650.492 C492.032 650.621 491.161 650.75 490.264 650.882 C480.438 652.288 470.576 653.168 460.688 654 C458.735 654.169 456.782 654.338 454.83 654.507 C436.562 656.08 418.282 657.51 399.995 658.852 C398.053 658.996 396.111 659.146 394.169 659.297 C347.775 662.813 347.775 662.813 330.082 647.926 C311.784 631.001 307.453 611.439 305.812 587.5 C305.729 586.352 305.646 585.203 305.56 584.02 C303.616 556.923 303.362 529.816 303.161 502.661 C303.093 493.903 302.899 485.161 302.539 476.41 C301.981 462.643 301.758 448.874 301.535 435.098 C301.496 432.731 301.457 430.364 301.417 427.998 C301.256 418.194 301.097 408.39 300.95 398.585 C300.86 392.516 300.76 386.448 300.655 380.379 C300.617 378.093 300.583 375.806 300.551 373.52 C300.238 350.764 300.238 350.764 298 340 C293.368 342.572 291.804 344.548 289.5 349.375 C289.172 350.054 288.843 350.733 288.505 351.433 C285.679 357.357 283.058 363.373 280.407 369.377 C279.855 370.626 279.302 371.876 278.75 373.125 C278.474 373.75 278.198 374.376 277.913 375.02 C272.946 386.234 267.345 396.991 261.303 407.664 C259.754 410.442 258.289 413.257 256.833 416.085 C250.39 428.54 242.329 439.733 233.938 450.938 C233.613 451.376 233.613 451.376 231.973 453.592 C223.284 465.026 211.673 475.661 197 478 C185.293 479.089 175.234 478.515 165.812 470.812 C142.506 448.576 132.355 411.928 121.961 382.426 C121.836 382.072 121.836 382.072 121.205 380.283 C119.999 376.855 118.8 373.425 117.616 369.989 C117.186 368.755 116.756 367.521 116.312 366.25 C115.937 365.162 115.562 364.074 115.176 362.953 C114.016 360.04 112.853 357.533 111 355 C110.01 355 109.02 355 108 355 C105.807 361.636 104.377 368.021 103.605 374.961 C103.493 375.916 103.38 376.871 103.264 377.854 C102.894 381.027 102.54 384.201 102.188 387.375 C102.062 388.484 101.936 389.592 101.807 390.734 C96.208 440.304 91.55 490.118 90.615 540.009 C90.598 540.934 90.58 541.859 90.562 542.812 C90.545 543.724 90.528 544.636 90.511 545.576 C89.245 610.012 89.245 610.012 72.141 628.035 C62.206 637.154 47.374 639.764 34.482 641.986 C33.485 642.158 32.487 642.331 31.46 642.508 C21.239 644.213 10.981 645.332 0.671 646.338 C-2.703 646.667 -6.076 647.008 -9.448 647.35 C-16.611 648.076 -23.774 648.789 -30.938 649.5 C-39.255 650.326 -47.572 651.158 -55.887 652.002 C-59.161 652.332 -62.435 652.652 -65.709 652.972 C-84.007 654.8 -102.705 656.78 -120.312 662.312 C-121.287 662.607 -122.261 662.902 -123.265 663.206 C-134.717 666.733 -146.359 670.428 -157 676 C-156.65 675.937 -156.65 675.937 -154.877 675.62 C-93.601 664.719 -33.616 660.489 28.688 662.75 C29.285 662.771 29.285 662.771 32.307 662.88 C57.283 663.802 82.128 665.562 107 668 C108.035 668.1 109.07 668.199 110.137 668.302 C162.404 673.35 213.325 683.738 264.409 695.557 C271.665 697.236 278.925 698.892 286.195 700.508 C286.614 700.601 286.614 700.601 288.733 701.072 C290.362 701.434 291.991 701.796 293.62 702.158 C312.939 706.458 332.181 711.07 351.423 715.698 C417.801 731.661 417.801 731.661 443.75 737.247 C454.91 739.652 466.051 742.134 477.185 744.657 C514.666 753.147 552.063 761.452 590.027 767.521 C593.101 768.016 596.172 768.524 599.243 769.036 C648.146 777.176 697.075 782.481 746.5 786.02 C747.684 786.105 748.867 786.19 750.087 786.277 C753.724 786.532 757.361 786.77 761 787 C761.706 787.045 762.413 787.09 763.14 787.136 C775.774 787.922 788.371 788.175 801.027 788.203 C803.012 788.21 804.996 788.217 806.98 788.224 C813.299 788.243 819.618 788.248 825.938 788.25 C826.475 788.25 826.475 788.25 829.194 788.252 C861.371 788.27 893.349 787.842 925.435 785.206 C928.836 784.933 932.238 784.691 935.641 784.45 C1019.297 778.51 1099.624 760.271 1203.668 722.623 C1221.474 715.514 1244.818 707.771 1263.859 714.828 C1270.666 718.554 1275.906 723.909 1279 731 C1280.995 738.05 1279.019 744.047 1275.777 750.395 C1270.549 758.944 1263.479 763.873 1254.164 767.273 C1244.509 769.491 1236.476 768.679 1226.875 766.5 C1213.167 763.41 1204.239 764.998 1191.053 769.205 C1172.24 775.191 1153.264 780.48 1134.157 785.439 C1132.105 785.973 1130.055 786.511 1128.005 787.049 C1077.179 800.302 1024.36 809.711 972 814 C971.535 814.038 971.535 814.038 969.182 814.233 C961.331 814.881 953.478 815.508 945.625 816.125 C944.527 816.212 943.428 816.298 942.297 816.388 C918.456 818.255 894.658 819.156 870.75 819.562 C869.557 819.583 868.364 819.604 867.135 819.625 C858.757 819.766 850.378 819.89 842 820 C841.002 820.013 840.004 820.026 838.976 820.04 C734.771 821.34 632.179 808.488 530 789 C528.778 788.768 527.556 788.535 526.297 788.296 C482.065 779.876 438.212 770.308 394.461 759.681 C381.813 756.612 369.155 753.64 356.438 750.875 C344.389 748.256 332.409 745.415 320.441 742.448 C280.717 732.603 240.781 723.646 200.488 716.446 C198.011 716.002 195.536 715.551 193.061 715.1 C151.115 707.476 108.517 702.164 66 699 C65.34 698.95 64.68 698.9 64 698.848 C-24.983 692.143 -120.207 698.32 -260 772 C-263.389 774.943 -266.716 777.941 -270 781 C-270.739 781.684 -271.477 782.369 -272.238 783.074 C-310.343 819.69 -329.784 875.355 -331.354 927.22 C-331.559 948.654 -327.712 969.948 -323.681 990.918 C-321.592 1001.839 -320.796 1012.124 -320.75 1023.25 C-320.729 1024.484 -320.709 1025.717 -320.688 1026.988 C-320.613 1044.662 -325.366 1059.038 -337.758 1071.91 C-344.945 1078.609 -353.256 1081.866 -363.156 1082.062 C-374.368 1081.383 -381.94 1077.919 -390 1070 C-404.182 1053.121 -405.418 1031.913 -403.609 1010.832 C-402.014 995.506 -398.904 980.392 -395.869 965.298 C-392.546 948.631 -390.6 932.316 -390.688 915.312 C-390.689 914.584 -390.69 913.855 -390.692 913.105 C-390.739 900.233 -391.633 887.674 -394 875 C-394.139 874.246 -394.278 873.491 -394.422 872.714 C-402.237 832.139 -424.57 794.525 -453 765 C-453.723 764.214 -454.446 763.427 -455.191 762.617 C-467.559 749.544 -483.236 741.077 -500 735 C-499.84 735.701 -499.68 736.403 -499.516 737.125 C-496.697 752.84 -501.184 767.852 -509.934 780.879 C-519.235 793.151 -531.949 799.652 -546 805 C-547.022 805.389 -548.044 805.779 -549.098 806.18 C-565.566 811.778 -583.717 813.659 -601 815 C-602.071 815.086 -603.141 815.172 -604.244 815.261 C-616.842 816.168 -629.436 816.283 -642.062 816.312 C-643.284 816.316 -644.505 816.32 -645.763 816.323 C-668.969 816.35 -692.083 815.324 -715.25 814.062 C-716.099 814.016 -716.948 813.97 -717.822 813.923 C-720.38 813.783 -722.937 813.644 -725.495 813.504 C-728.827 813.323 -732.16 813.142 -735.492 812.961 C-736.302 812.917 -737.111 812.873 -737.946 812.828 C-818.809 808.455 -907.688 811.191 -976 861 C-976.788 861.574 -977.575 862.147 -978.387 862.738 C-987.028 870.083 -986.632 884.076 -987.5 894.539 C-987.622 895.914 -987.745 897.288 -987.869 898.663 C-988.191 902.256 -988.504 905.849 -988.812 909.443 C-992.753 955.303 -992.753 955.303 -997.625 972.625 C-997.877 973.527 -998.128 974.429 -998.387 975.358 C-1005.932 1001.55 -1016.673 1031.493 -1041.687 1045.977 C-1056.127 1053.912 -1070.449 1056.299 -1086.754 1053.312 C-1102.595 1048.356 -1113.621 1037.944 -1122 1024 C-1131.297 1005.768 -1130.923 986.226 -1125 967 C-1114.837 936.809 -1093.666 912.444 -1071.438 890.312 C-1070.544 889.415 -1069.65 888.517 -1068.729 887.592 C-1063.648 882.518 -1058.471 877.649 -1053 873 C-1051.847 872.003 -1050.695 871.006 -1049.543 870.008 C-1048.425 869.046 -1047.306 868.085 -1046.188 867.125 C-1045.59 866.611 -1044.993 866.097 -1044.377 865.568 C-1040.64 862.366 -1036.846 859.257 -1033 856.188 C-1022.423 847.539 -1018.836 839.718 -1017.406 826.141 C-1016.428 815.133 -1016.286 804.043 -1016 793 C-1016.66 793 -1017.32 793 -1018 793 C-1018.249 793.57 -1018.498 794.14 -1018.754 794.727 C-1020.19 797.346 -1021.887 799.202 -1023.938 801.375 C-1027.581 805.338 -1030.921 809.418 -1034.188 813.688 C-1047.761 831.188 -1064.149 848.689 -1087 853 C-1096.511 854.089 -1106.519 851.823 -1114.375 846.25 C-1128.531 834.334 -1130.651 820.569 -1133 803 C-1133.473 803.606 -1133.946 804.212 -1134.434 804.836 C-1139.391 811.117 -1144.549 817.143 -1150 823 C-1150.636 823.69 -1151.271 824.379 -1151.926 825.09 C-1163.354 837.039 -1176.021 845.826 -1192.812 846.375 C-1201.316 846.211 -1208.779 844.792 -1214.875 838.5 C-1223.377 827.586 -1224.194 815.588 -1224.188 802.312 C-1224.188 801.982 -1224.188 801.982 -1224.19 800.308 C-1224.189 790.972 -1223.798 781.744 -1223 772.438 C-1222.175 762.642 -1221.723 752.889 -1221.625 743.062 C-1221.599 741.817 -1221.573 740.572 -1221.547 739.289 C-1221.546 738.711 -1221.546 738.711 -1221.539 735.785 C-1221.531 734.763 -1221.523 733.741 -1221.514 732.688 C-1222.132 729.269 -1223.261 728.079 -1226 726 C-1230.704 725.729 -1233.417 727.019 -1236.938 729.938 C-1260.079 752.015 -1273.168 785.776 -1283.238 815.484 C-1283.526 816.333 -1283.814 817.181 -1284.111 818.055 C-1285.568 822.357 -1287.012 826.663 -1288.433 830.977 C-1288.971 832.586 -1289.509 834.196 -1290.047 835.805 C-1290.285 836.541 -1290.523 837.278 -1290.769 838.037 C-1293.129 845.047 -1296.272 850.33 -1302.781 854.082 C-1306.579 855.653 -1309.988 855.792 -1314 855 C-1318.909 852.6 -1320.441 848.616 -1322.219 843.691 C-1326.201 829.974 -1323.964 814.012 -1323.145 799.911 C-1321.813 776.603 -1321.787 753.338 -1322 730 C-1337.211 733.965 -1347.829 751.625 -1355.536 764.583 C-1357.028 767.263 -1358.465 769.964 -1359.875 772.688 C-1360.132 773.183 -1360.132 773.183 -1361.43 775.689 C-1371.07 794.679 -1377.892 814.753 -1382.781 835.449 C-1382.858 835.773 -1382.858 835.773 -1383.246 837.414 C-1384.005 840.636 -1384.747 843.859 -1385.465 847.09 C-1387.221 854.731 -1388.724 860.958 -1394.625 866.438 C-1400.29 869.06 -1405.504 868.832 -1411.375 866.875 C-1415.04 864.257 -1417.583 861.438 -1418.367 856.855 C-1418.504 854.289 -1418.497 851.764 -1418.434 849.195 C-1418.421 848.237 -1418.408 847.278 -1418.395 846.29 C-1418.122 834.73 -1416.602 823.321 -1415.062 811.875 C-1412.734 794.048 -1410.826 776.699 -1410.87 758.707 C-1410.875 756.043 -1410.87 753.38 -1410.863 750.717 C-1410.864 749.01 -1410.865 747.304 -1410.867 745.598 C-1410.866 745.203 -1410.866 745.203 -1410.861 743.205 C-1410.877 739.346 -1411.06 735.751 -1412 732 C-1427.748 735.737 -1439.772 750.092 -1451 761 C-1451.534 761.517 -1452.067 762.034 -1452.617 762.566 C-1456.656 766.495 -1460.593 770.462 -1464.25 774.75 C-1467.63 778.71 -1471.302 782.34 -1475 786 C-1479.216 790.177 -1483.329 794.362 -1487.176 798.887 C-1491.638 804.055 -1496.33 809.02 -1501 814 C-1501.896 814.963 -1502.792 815.926 -1503.715 816.918 C-1509.546 823.001 -1514.359 826.757 -1522.5 828.938 C-1527.659 829.03 -1531.635 828.011 -1535.617 824.625 C-1539.189 820.427 -1539.826 816.237 -1539.531 810.82 C-1537.722 801.213 -1529.855 794.242 -1523.348 787.429 C-1521.409 785.373 -1519.553 783.247 -1517.688 781.125 C-1513.319 776.245 -1508.686 771.656 -1504.032 767.052 C-1500.323 763.367 -1496.782 759.603 -1493.391 755.621 C-1491.37 753.266 -1489.292 751.095 -1487 749 C-1486.34 749 -1485.68 749 -1485 749 C-1485 748.34 -1485 747.68 -1485 747 C-1483.672 745.695 -1483.672 745.695 -1481.75 744.125 C-1477.97 740.921 -1474.474 737.526 -1471 734 C-1467.191 730.154 -1463.368 726.4 -1459.234 722.898 C-1457.429 721.364 -1455.657 719.806 -1453.891 718.227 C-1441.17 706.942 -1427.415 696.131 -1409.812 694.75 C-1401.677 695.284 -1395.465 697.228 -1389.883 703.375 C-1383.568 712.178 -1380.064 722.445 -1378 733 C-1373.703 731.628 -1371.544 729.779 -1368.625 726.375 C-1367.85 725.482 -1367.076 724.588 -1366.277 723.668 C-1365.526 722.788 -1364.774 721.907 -1364 721 C-1362.73 719.561 -1361.46 718.124 -1360.188 716.688 C-1358.396 714.642 -1356.704 712.609 -1355.062 710.438 C-1347.068 700.99 -1335.054 691.798 -1322.453 690.688 C-1313.49 690.404 -1307.567 690.855 -1300.887 696.918 C-1291.115 707.012 -1290.035 718.356 -1289.395 731.771 C-1289.178 735.916 -1288.775 739.912 -1288 744 C-1287.669 743.498 -1287.338 742.995 -1286.997 742.478 C-1280.013 731.934 -1272.83 721.895 -1264.351 712.502 C-1263.085 711.094 -1261.842 709.665 -1260.602 708.234 C-1250.523 696.706 -1239.099 685.166 -1223 684 C-1214.726 683.918 -1207.333 685.323 -1200.91 690.773 C-1189.086 702.983 -1185.608 717.616 -1185.625 734.062 C-1185.623 735.339 -1185.621 736.615 -1185.619 737.93 C-1185.704 751.023 -1187.104 763.989 -1188.665 776.979 C-1191.476 801.049 -1191.476 801.049 -1188 808 C-1182.589 808.515 -1180.308 807.186 -1176 804 C-1147.695 779.906 -1129.067 742.194 -1115.283 708.421 C-1112.651 702.063 -1110.019 696.08 -1104.188 692.062 C-1098.953 690.318 -1094.915 690.263 -1089.75 692.25 C-1085.885 694.709 -1083.466 696.603 -1082 701 C-1081.397 709.762 -1082.446 717.742 -1084.52 726.23 C-1084.779 727.346 -1085.038 728.461 -1085.305 729.61 C-1086.127 733.139 -1086.969 736.663 -1087.812 740.188 C-1097.589 781.493 -1097.589 781.493 -1097.312 797.25 C-1097.316 798.216 -1097.319 799.181 -1097.322 800.176 C-1097.285 805.12 -1097.114 809.428 -1095 814 C-1090.99 816.005 -1086.095 815.639 -1081.875 814.352 C-1068.754 808.355 -1060.125 793.331 -1052.014 781.968 C-1048.872 777.569 -1045.67 773.234 -1042.372 768.951 C-1027.404 749.44 -1016.091 727.629 -1007.08 704.788 C-1004.546 698.565 -1001.683 694.789 -996 691 C-991.056 690.268 -987.064 690.478 -982.562 692.688 C-978.884 696.008 -976.945 699.162 -976 704 C-975.963 705.704 -975.987 707.41 -976.053 709.113 C-976.072 709.628 -976.072 709.628 -976.169 712.237 C-976.218 713.361 -976.266 714.486 -976.316 715.645 C-976.34 716.238 -976.34 716.238 -976.462 719.243 C-977.072 733.676 -977.931 748.095 -978.806 762.514 C-978.981 765.417 -979.152 768.32 -979.323 771.223 C-980.323 788.169 -981.477 805.092 -983 822 C-982.46 821.754 -981.92 821.507 -981.363 821.253 C-975.256 818.47 -969.135 815.722 -963 813 C-962.494 812.775 -962.494 812.775 -959.936 811.639 C-891.581 781.478 -823.58 776.396 -749.971 780.191 C-743.991 780.497 -738.011 780.791 -732.031 781.086 C-731.448 781.115 -731.448 781.115 -728.497 781.26 C-726.173 781.375 -723.848 781.489 -721.524 781.604 C-718.116 781.772 -714.709 781.941 -711.301 782.111 C-689.733 783.181 -668.163 784.218 -646.562 784.188 C-646.179 784.187 -646.179 784.187 -644.238 784.187 C-563.04 784.057 -563.04 784.057 -539.73 765.16 C-534.017 759.278 -530.897 751.424 -530.562 743.25 C-530.859 737.709 -532.687 733.568 -536.25 729.312 C-545.358 721.653 -555.321 721.224 -566.824 720.013 C-622.637 714.06 -677.348 690.596 -722 657 C-722.64 656.52 -723.279 656.041 -723.938 655.546 C-742.965 641.187 -761.749 624.137 -776 605 C-776.472 604.372 -776.944 603.744 -777.43 603.098 C-792.127 583.465 -804.056 562.936 -815 541 C-815.564 539.875 -816.128 538.749 -816.709 537.59 C-845.858 479.157 -864.395 417.043 -872.742 352.392 C-874.392 339.651 -876.511 327.061 -879.033 314.464 C-886.348 277.62 -877.92 243.896 -861 211 C-860.503 210.032 -860.005 209.064 -859.493 208.067 C-856.218 201.874 -852.523 196.218 -848.312 190.625 C-847.705 189.81 -847.098 188.995 -846.472 188.155 C-841.244 181.198 -835.743 174.537 -830 168 C-829.49 167.404 -828.979 166.807 -828.454 166.193 C-817.77 153.777 -806.023 141.952 -793 132 C-791.725 130.976 -790.451 129.95 -789.18 128.922 C-752.163 99.238 -709.19 76.476 -664.938 59.625 C-663.994 59.263 -663.051 58.902 -662.079 58.53 C-598.717 34.278 -533.211 18.04 -465.875 9.688 C-464.892 9.564 -463.91 9.441 -462.897 9.314 C-437.139 6.115 -411.443 4.641 -385.489 4.684 C-381.501 4.687 -377.515 4.664 -373.527 4.639 C-320.403 4.508 -263.534 15.248 -216 40 C-199.568 48.333 -199.568 48.333 -192 46 C-185.829 42.876 -180.902 38.195 -175.848 33.555 C-165.666 24.42 -155.02 16.538 -143 10 C-142.688 9.83 -142.688 9.83 -141.107 8.97 C-120.475 -2.092 -97.384 -11.305 -74 -14 C-73.118 -14.11 -72.237 -14.219 -71.328 -14.332 C-45.687 -17.111 -22.376 -12.501 0 0 Z M-159.25 63.977 C-162.462 67.69 -164.081 70.241 -163.852 75.207 C-162.819 79.806 -160.942 82.762 -158.25 86.562 C-157.819 87.196 -157.389 87.83 -156.945 88.482 C-154.171 92.515 -151.184 96.283 -148 100 C-144.081 96.748 -140.443 93.446 -136.938 89.75 C-120.001 72.757 -96.902 62.592 -72.938 61.75 C-57.515 61.984 -42.426 66.711 -31.152 77.586 C-15.833 94.768 -8.791 115.069 -8 138 C-7.96 139.035 -7.92 140.07 -7.879 141.137 C-6.638 205.147 -41.683 265.44 -84.594 310.488 C-87.837 313.857 -91.149 317.148 -94.582 320.324 C-99.298 325.898 -99.167 333.694 -99.25 340.625 C-99.276 341.917 -99.302 343.208 -99.328 344.539 C-98.989 348.118 -98.453 349.457 -96 352 C-74.42 350.006 -49.935 324.761 -36.688 308.938 C-25.571 295.075 -16.212 280.172 -7 265 C-6.397 264.013 -5.794 263.026 -5.173 262.009 C-1.099 255.208 2.281 248.32 5.312 241 C5.775 239.893 6.237 238.786 6.713 237.645 C14.132 219.632 21.558 201.25 25 182 C25.14 181.223 25.28 180.447 25.424 179.646 C32.503 139.424 32.183 86.414 9 51 C6.487 47.52 3.822 44.234 1 41 C0.481 40.385 -0.039 39.77 -0.574 39.137 C-11.73 26.914 -30.076 17.95 -46.469 16.832 C-87.23 15.062 -131.088 34.469 -159.25 63.977 Z M-576 59 C-577.398 59.388 -578.796 59.775 -580.193 60.163 C-613.645 69.483 -646.465 80.4 -678 95 C-679.166 95.536 -680.332 96.072 -681.533 96.625 C-717.247 113.142 -750.264 133.19 -780 159 C-780.712 159.611 -781.423 160.222 -782.156 160.852 C-784.12 162.55 -786.062 164.272 -788 166 C-788.936 166.82 -789.872 167.64 -790.836 168.484 C-797.623 174.497 -803.456 180.796 -809 188 C-810.054 189.328 -811.109 190.654 -812.164 191.98 C-818.981 200.621 -824.899 209.222 -830 219 C-830.684 220.264 -831.367 221.529 -832.051 222.793 C-844.913 247.042 -851.757 275.015 -844 302 C-833.112 335.838 -807.697 356.018 -777.214 371.891 C-770.975 375.017 -764.555 377.616 -758 380 C-757.647 380.129 -757.647 380.129 -755.86 380.78 C-741.27 385.975 -726.157 388.959 -711 392 C-710.099 392.188 -709.197 392.375 -708.268 392.569 C-706.013 392.998 -703.979 393.101 -701.688 393.062 C-700.471 393.042 -699.254 393.021 -698 393 C-698.507 387.996 -700.898 384.709 -703.688 380.688 C-704.144 380.02 -704.601 379.353 -705.072 378.666 C-705.975 377.353 -706.883 376.042 -707.794 374.735 C-708.762 373.343 -709.707 371.936 -710.645 370.523 C-718.849 358.655 -731.616 353.254 -744.471 347.834 C-769.401 337.31 -793.342 325.45 -804.223 299.031 C-811.145 280.571 -808.341 262.842 -800.543 245.039 C-793.725 231.61 -784.218 219.969 -774 209 C-773.713 208.691 -773.713 208.691 -772.258 207.129 C-768.07 202.79 -763.486 199.005 -758.785 195.234 C-757.11 193.89 -755.446 192.53 -753.809 191.141 C-736.184 176.385 -715.774 165.066 -695.171 155.061 C-692.91 153.956 -690.663 152.828 -688.414 151.699 C-614.53 115.057 -527.971 100.6 -446.427 94.191 C-444.152 94.012 -441.879 93.827 -439.605 93.641 C-404.723 90.823 -369.754 90.787 -335 95 C-332.912 95.232 -330.823 95.462 -328.734 95.691 C-295.32 99.513 -254.654 107.723 -229 131 C-228.685 131.258 -228.685 131.258 -227.09 132.562 C-218.494 140.119 -213.91 152.089 -212.767 163.284 C-211.163 190.053 -221.485 213.581 -238.988 233.445 C-241.924 236.697 -244.949 239.856 -248 243 C-248.784 243.824 -249.568 244.647 -250.375 245.496 C-254.967 250.227 -259.823 254.477 -264.977 258.586 C-267.041 260.234 -269.071 261.895 -271.086 263.602 C-313.425 299.027 -364.371 321.935 -416.836 337.523 C-445.12 345.932 -469.586 356.314 -486.797 381.645 C-488.293 384.573 -488.226 386.757 -488 390 C-484.015 391.05 -481.171 390.866 -477.16 389.996 C-476.027 389.754 -474.895 389.512 -473.728 389.262 C-472.518 388.99 -471.309 388.718 -470.062 388.438 C-468.797 388.156 -467.531 387.874 -466.227 387.584 C-462.481 386.738 -458.74 385.872 -455 385 C-454.075 384.79 -453.15 384.58 -452.197 384.364 C-423.632 377.777 -395.486 366.054 -368.742 354.211 C-366.087 353.038 -363.422 351.89 -360.754 350.746 C-349.956 346.066 -339.654 340.694 -329.375 334.969 C-325.211 332.652 -321.008 330.434 -316.768 328.26 C-289.491 314.239 -263.773 296.557 -241 276 C-240.202 275.294 -239.404 274.587 -238.582 273.859 C-206.65 245.454 -175.507 201.975 -171.113 158.141 C-170.238 133.868 -179.073 110.569 -195.438 92.688 C-197.262 90.758 -199.121 88.879 -201 87 C-201.79 86.21 -202.58 85.42 -203.395 84.605 C-214.67 73.928 -228.007 66.49 -242 60 C-243.047 59.501 -244.093 59.002 -245.172 58.488 C-274.508 45.17 -306.176 38.744 -338 35 C-338.969 34.881 -339.939 34.763 -340.938 34.641 C-418.454 25.597 -501.298 38.099 -576 59 Z M-118 116 C-123.776 123.266 -128.646 129.424 -128 139 C-127.494 142.33 -126.758 145.594 -126 148.875 C-125.783 149.85 -125.566 150.824 -125.342 151.829 C-124.122 157.252 -122.847 162.662 -121.54 168.065 C-121.019 170.223 -120.5 172.381 -119.982 174.54 C-119.314 177.322 -118.633 180.101 -117.943 182.878 C-112.582 204.829 -110.08 227.359 -107.312 249.75 C-106.852 253.454 -106.39 257.158 -105.926 260.861 C-105.641 263.137 -105.358 265.413 -105.078 267.689 C-105.014 268.199 -105.014 268.199 -104.693 270.78 C-104.583 271.671 -104.472 272.561 -104.359 273.479 C-103.999 276.01 -103.526 278.498 -103 281 C-96.221 278.676 -92.196 274.338 -87.938 268.75 C-87.466 268.139 -86.995 267.527 -86.51 266.897 C-85.51 265.597 -84.513 264.294 -83.519 262.988 C-82.026 261.034 -80.517 259.095 -79.004 257.156 C-58.199 230.261 -38.361 194.784 -37 160 C-36.96 159.18 -36.92 158.36 -36.879 157.516 C-36.362 136.968 -41.026 116.209 -55.133 100.691 C-61.015 95.363 -68.022 93.624 -75.777 93.727 C-92.238 95.123 -107.186 103.758 -118 116 Z M-693 208 C-693.429 208.324 -693.429 208.324 -695.598 209.965 C-698.816 212.558 -700.699 214.247 -702.25 218.125 C-702 221 -702 221 -700.5 223.938 C-698 226 -698 226 -695.027 226.066 C-689.312 225.039 -684.748 221.224 -680.062 218 C-677.998 216.622 -675.932 215.247 -673.863 213.875 C-672.859 213.207 -671.854 212.54 -670.819 211.852 C-662.045 206.089 -653.256 201.262 -643.359 197.723 C-642.951 197.574 -642.951 197.574 -640.884 196.824 C-634.717 194.593 -628.531 192.418 -622.344 190.246 C-621.899 190.09 -621.899 190.09 -619.646 189.298 C-619.199 189.14 -619.199 189.14 -616.938 188.346 C-616.043 188.031 -615.148 187.717 -614.227 187.393 C-612.396 186.751 -610.563 186.113 -608.73 185.477 C-581.333 175.961 -581.333 175.961 -577 169 C-576.5 165.938 -576.5 165.938 -577 163 C-579.762 160.142 -582.737 159.708 -586.562 159.438 C-622.38 160.674 -665.145 186.73 -693 208 Z M-149 204 C-153.239 209.349 -156.38 215.463 -159.625 221.438 C-167.731 236.256 -177.261 249.978 -188 263 C-188.447 263.55 -188.895 264.101 -189.356 264.668 C-200.444 278.263 -212.75 291.282 -226.598 302.09 C-228.998 303.998 -231.205 306.024 -233.438 308.125 C-251.604 324.624 -272.981 338.412 -294 351 C-294.942 351.565 -295.885 352.13 -296.855 352.711 C-311.871 361.658 -327.043 369.863 -343 377 C-343.492 377.221 -343.492 377.221 -345.979 378.341 C-363.888 386.34 -382.229 392.965 -400.792 399.252 C-402.264 399.751 -403.736 400.251 -405.208 400.752 C-428.069 408.535 -450.837 414.648 -474.555 419.254 C-475.583 419.454 -476.612 419.654 -477.671 419.86 C-482.866 420.868 -488.062 421.866 -493.263 422.842 C-495.199 423.211 -497.134 423.58 -499.07 423.949 C-499.953 424.112 -500.835 424.274 -501.744 424.441 C-512.104 426.431 -518.834 429.117 -525 438 C-543.928 468.279 -551.732 508.654 -553 544 C-553.041 545.088 -553.082 546.176 -553.125 547.297 C-553.746 580.34 -546.457 616.188 -530 645 C-529.648 645.647 -529.296 646.294 -528.933 646.96 C-518.979 665.153 -504.014 680.89 -483.922 687.273 C-477.953 688.758 -472.048 689.165 -465.918 689.203 C-465.155 689.21 -464.392 689.217 -463.606 689.225 C-410.806 689.601 -358.966 678.217 -311 656 C-310.146 655.604 -309.291 655.209 -308.411 654.801 C-281.007 641.953 -256.735 624.872 -234 605 C-233.305 604.404 -232.61 603.809 -231.895 603.195 C-229.91 601.485 -227.952 599.748 -226 598 C-225.049 597.153 -224.097 596.306 -223.117 595.434 C-161.668 540.125 -136.612 457.67 -131.192 377.205 C-130.763 368.977 -130.814 360.729 -130.815 352.492 C-130.813 349.364 -130.794 346.236 -130.775 343.107 C-130.7 317.893 -133.246 293.186 -136.812 268.25 C-137.172 265.699 -137.531 263.148 -137.889 260.597 C-139.797 247.094 -141.744 233.595 -143.875 220.125 C-143.97 219.515 -143.97 219.515 -144.452 216.427 C-144.631 215.34 -144.809 214.253 -144.992 213.133 C-145.14 212.224 -145.288 211.316 -145.441 210.379 C-145.999 208.003 -146.814 206.125 -148 204 C-148.33 204 -148.66 204 -149 204 Z M618 224 C615.191 229.894 613.081 235.651 611.52 241.984 C611.306 242.825 611.092 243.665 610.871 244.531 C610.177 247.269 609.494 250.009 608.812 252.75 C608.326 254.686 607.839 256.622 607.352 258.557 C606.363 262.493 605.38 266.431 604.402 270.37 C603.337 274.655 602.258 278.937 601.171 283.216 C596.654 301.031 592.652 318.925 589 336.938 C588.804 337.892 588.608 338.847 588.406 339.831 C582.468 368.893 582.468 368.893 584.946 373.919 C587.499 376.648 590.422 377.904 594.128 378.129 C594.542 378.13 594.542 378.13 596.637 378.133 C597.591 378.135 598.546 378.137 599.53 378.139 C600.572 378.135 601.614 378.13 602.688 378.125 C603.229 378.123 603.229 378.123 605.97 378.113 C609.647 378.088 613.323 378.048 617 378 C617.684 377.991 618.367 377.983 619.072 377.974 C623.382 377.917 627.692 377.838 632.001 377.736 C633.407 377.704 634.814 377.677 636.22 377.654 C650.402 377.416 650.402 377.416 656 374 C659.357 368.964 659.451 363.122 658.596 357.201 C657.906 354.185 657.103 351.224 656.25 348.25 C655.936 347.099 655.623 345.947 655.3 344.761 C654.222 340.834 653.114 336.917 652 333 C651.592 331.561 651.185 330.122 650.778 328.683 C649.912 325.624 649.046 322.566 648.179 319.508 C647.955 318.717 647.731 317.927 647.5 317.112 C647.04 315.491 646.58 313.87 646.119 312.249 C642.097 298.105 638.279 283.914 634.562 269.688 C634.437 269.209 634.437 269.209 633.802 266.788 C631.108 256.512 628.478 246.245 626.402 235.823 C625.498 231.488 624.146 227.872 622 224 C620.68 224 619.36 224 618 224 Z M-7 324 C-8.716 325.812 -10.394 327.645 -12.062 329.5 C-17.002 334.918 -22.071 340.187 -27.25 345.375 C-27.898 346.028 -28.547 346.681 -29.215 347.354 C-33.092 351.219 -37.09 354.883 -41.236 358.459 C-43.292 360.255 -45.23 362.159 -47.188 364.062 C-60.565 376.1 -76.582 384.974 -92.914 392.309 C-93.726 392.702 -94.538 393.095 -95.375 393.5 C-96.043 393.799 -96.71 394.098 -97.398 394.406 C-101.354 398.342 -101.513 406.722 -102.297 412.145 C-102.532 413.71 -102.767 415.276 -103.003 416.842 C-103.124 417.653 -103.246 418.463 -103.371 419.299 C-109.678 461.105 -119.763 502.555 -140 540 C-140.191 540.356 -140.191 540.356 -141.155 542.157 C-149.903 558.422 -159.281 573.708 -171 588 C-171.75 588.932 -172.5 589.864 -173.273 590.824 C-176.517 594.834 -179.81 598.793 -183.191 602.688 C-183.739 603.32 -184.287 603.952 -184.852 604.604 C-185.931 605.846 -187.015 607.084 -188.103 608.318 C-190.319 610.865 -191.921 612.764 -193 616 C-183.521 619.16 -170.292 615.218 -160.535 613.646 C-144.3 611.047 -128.042 609.003 -111.688 607.312 C-110.689 607.209 -109.69 607.105 -108.661 606.999 C-102.108 606.322 -95.555 605.658 -89 605 C-83.728 604.47 -78.457 603.929 -73.188 603.375 C-72.164 603.276 -71.141 603.177 -70.087 603.075 C-61.876 602.207 -52.824 601.051 -46.652 595.082 C-40.837 587.754 -37.771 579.165 -35.559 570.199 C-35.347 569.342 -35.135 568.485 -34.916 567.601 C-32.123 555.84 -30.444 543.888 -28.688 531.938 C-28.3 529.342 -27.912 526.747 -27.524 524.151 C-26.326 516.104 -25.159 508.053 -24 500 C-23.818 498.734 -23.635 497.469 -23.447 496.165 C-18.438 461.299 -14.199 426.391 -10.649 391.348 C-10.134 386.278 -9.596 381.211 -9.046 376.145 C-5.245 341.124 -5.245 341.124 -6 324 C-6.33 324 -6.66 324 -7 324 Z M-837 371 C-837.262 378.561 -836.637 385.435 -835 392.812 C-834.889 393.324 -834.889 393.324 -834.329 395.91 C-826.977 429.025 -816.876 461.025 -803 492 C-802.529 493.055 -802.058 494.11 -801.572 495.197 C-796.313 506.928 -790.914 518.586 -785.02 530.013 C-783.926 532.144 -782.852 534.285 -781.777 536.426 C-772.875 553.956 -762.531 570.819 -750 586 C-749.576 586.524 -749.153 587.047 -748.716 587.587 C-735.655 603.694 -720.99 618.439 -704.097 630.501 C-701.958 632.03 -699.84 633.585 -697.723 635.145 C-689.115 641.421 -680.297 646.96 -670.901 651.975 C-669.088 652.952 -667.297 653.96 -665.508 654.98 C-635.733 671.747 -597.639 686.167 -563 686 C-562.01 685.67 -561.02 685.34 -560 685 C-561.409 679.697 -563.811 676.178 -567.125 671.938 C-567.649 671.253 -568.172 670.568 -568.711 669.862 C-570.467 667.569 -572.233 665.284 -574 663 C-617.202 606.959 -641.076 551.723 -657.09 483.218 C-664.764 450.531 -664.764 450.531 -671 440.812 C-671.639 439.788 -672.279 438.763 -672.938 437.707 C-676.984 432.396 -681.354 430.198 -687.688 428.461 C-688.431 428.25 -689.174 428.039 -689.94 427.822 C-697.432 425.765 -705.016 424.357 -712.666 423.033 C-735.822 418.989 -757.664 413.059 -779.415 404.058 C-781.805 403.08 -784.205 402.143 -786.617 401.223 C-801.845 395.342 -815.201 387.089 -828 377 C-829.559 375.808 -831.121 374.619 -832.688 373.438 C-833.31 372.962 -833.933 372.486 -834.574 371.996 C-836 371 -836 371 -837 371 Z M-1048 915 C-1048.658 915.624 -1049.317 916.249 -1049.995 916.892 C-1070.496 936.464 -1092.347 962.753 -1093.312 992.688 C-1093.238 999.768 -1090.851 1006.038 -1087.125 1012 C-1081.634 1017.168 -1076.489 1017.547 -1069.18 1017.34 C-1060.747 1016.439 -1054.648 1011.036 -1049 1005 C-1026.112 975.736 -1023.13 930.564 -1024 895 C-1030.673 895 -1043.1 910.334 -1048 915 Z " fill="#BE582A" transform="translate(2181,1418)"/>
<path d="M0 0 C0.614 0.007 0.614 0.007 3.718 0.044 C23.29 0.446 44.965 3.089 61.562 14.438 C62.131 14.802 62.699 15.167 63.285 15.543 C68.375 19.207 70.926 24.704 71.963 30.785 C72.147 33.474 72.165 36.118 72.125 38.812 C72.119 39.892 72.113 40.972 72.107 42.084 C71.828 55.534 70.191 68.892 68.773 82.258 C66.97 99.361 65.945 116.317 65.752 133.512 C65.743 134.319 65.734 135.126 65.725 135.958 C65.711 137.404 65.702 138.85 65.701 140.297 C65.674 144.712 65.473 149.1 65.202 153.507 C64.561 163.986 64.416 174.422 64.43 184.918 C64.429 186.746 64.428 188.574 64.427 190.402 C64.425 194.214 64.427 198.025 64.432 201.836 C64.438 206.62 64.434 211.404 64.429 216.189 C64.398 245.559 64.621 274.849 67.182 304.13 C67.441 307.1 67.684 310.071 67.926 313.043 C69.339 329.961 70.991 347.025 75.25 363.5 C75.503 364.489 75.755 365.478 76.016 366.497 C79.754 380.535 84.677 394.78 93.562 406.438 C94.166 407.233 94.769 408.028 95.391 408.848 C101.434 416.205 110.367 423.487 120.105 424.773 C127.788 424.887 134.458 423.825 140.531 418.812 C159.639 398.699 162.796 363.609 162.703 337.398 C162.701 336.253 162.698 335.108 162.695 333.928 C162.607 318.787 162.017 303.66 161.411 288.532 C161.311 286.028 161.213 283.523 161.116 281.018 C160.066 254.191 158.571 227.419 156.672 200.639 C153.373 154.086 152.658 107.293 154.2 60.653 C154.275 58.361 154.343 56.069 154.405 53.776 C154.496 50.553 154.612 47.332 154.734 44.109 C154.757 43.149 154.781 42.19 154.804 41.2 C155.068 35.188 156.161 30.479 159.562 25.438 C161.492 23.816 161.492 23.816 163.438 23 C164.074 22.713 164.711 22.425 165.367 22.129 C171.078 20.33 176.701 20.284 182.625 20.312 C183.01 20.311 183.01 20.311 184.959 20.301 C189.527 20.308 194.027 20.535 198.578 20.926 C203.772 21.355 208.929 21.544 214.137 21.613 C214.879 21.625 215.622 21.637 216.387 21.649 C219.447 21.698 222.508 21.746 225.569 21.763 C245.449 21.9 245.449 21.9 252.453 28.115 C258.375 34.374 260.453 41.958 260.936 50.405 C260.992 51.366 261.049 52.328 261.108 53.319 C261.165 54.35 261.222 55.38 261.281 56.441 C261.344 57.516 261.407 58.59 261.472 59.697 C261.672 63.131 261.867 66.565 262.062 70 C262.258 73.409 262.455 76.819 262.653 80.228 C262.776 82.346 262.898 84.465 263.017 86.583 C263.302 91.51 263.64 96.422 264.083 101.338 C264.642 107.878 264.816 114.408 264.957 120.969 C265.006 122.978 265.056 124.988 265.106 126.997 C265.159 129.149 265.212 131.301 265.264 133.453 C265.951 161.408 267.04 189.327 268.429 217.255 C270.745 263.888 272.716 310.484 272.807 357.184 C272.812 359.33 272.82 361.477 272.829 363.624 C272.901 384.828 272.555 405.97 268.25 426.812 C268.031 427.899 267.813 428.986 267.587 430.105 C262.289 455.728 252.855 478.5 235.562 498.438 C235.104 498.968 234.645 499.499 234.173 500.046 C226.403 508.96 218.169 516.551 208.562 523.438 C207.956 523.876 207.35 524.314 206.726 524.766 C176.24 546.593 139.333 552.819 102.562 547.438 C73.699 542.528 48.69 528.502 27.562 508.438 C27.088 507.99 26.614 507.543 26.125 507.083 C18.427 499.782 11.707 492.085 5.562 483.438 C5.153 482.862 4.743 482.286 4.321 481.692 C-11.337 459.433 -22.171 435.914 -28.438 409.438 C-28.591 408.792 -28.744 408.147 -28.902 407.482 C-33.059 389.897 -36.718 372.261 -39.312 354.375 C-39.503 353.084 -39.694 351.794 -39.891 350.464 C-43.098 327.03 -43.81 303.325 -44.502 279.709 C-44.583 277.005 -44.671 274.301 -44.759 271.598 C-45.289 255.206 -45.576 238.837 -45.438 222.438 C-45.43 221.352 -45.422 220.266 -45.414 219.147 C-45.351 210.597 -45.249 202.049 -45.125 193.5 C-45.116 192.838 -45.106 192.176 -45.096 191.493 C-44.601 157.252 -42.995 123.07 -41.136 88.878 C-40.457 76.201 -40.148 63.53 -39.961 50.837 C-39.454 17.821 -39.454 17.821 -30.719 8.629 C-21.693 1.212 -11.326 -0.218 0 0 Z " fill="#BE582A" transform="translate(992.4375,1487.5625)"/>
<path d="M0 0 C6.264 6.611 6.383 13.593 6.363 22.258 C6.361 23.388 6.359 24.518 6.357 25.682 C6.159 40.125 4.306 54.375 2.466 68.681 C2.091 71.634 1.733 74.59 1.376 77.546 C1.024 80.441 0.664 83.336 0.302 86.23 C0.052 88.234 -0.194 90.24 -0.44 92.245 C-3.8 118.216 -3.8 118.216 -13.5 126.312 C-18.294 129.134 -22.918 129.854 -28.34 130.574 C-29.256 130.7 -30.172 130.826 -31.116 130.956 C-43.083 132.514 -55.123 133.049 -67.168 133.657 C-96.267 135.157 -96.267 135.157 -101.064 140.147 C-103.338 143.499 -103.742 145.733 -104.181 149.742 C-104.218 150.068 -104.218 150.068 -104.405 151.72 C-105.241 159.504 -105.707 167.316 -106.098 175.133 C-106.139 175.94 -106.181 176.747 -106.223 177.579 C-107.236 197.659 -107.435 217.738 -107.437 237.841 C-107.438 240.924 -107.442 244.008 -107.446 247.091 C-107.479 296.723 -105.418 346.438 -101.459 395.918 C-100.979 401.997 -100.691 408.072 -100.465 414.164 C-100.422 415.295 -100.379 416.425 -100.334 417.59 C-98.961 454.37 -97.773 491.282 -99.584 528.071 C-99.683 530.101 -99.766 532.132 -99.849 534.162 C-100.384 542.783 -102.16 548.261 -108.375 554.312 C-114.64 558.34 -120.653 559.714 -127.938 560.688 C-128.86 560.814 -129.782 560.941 -130.732 561.071 C-140.805 562.364 -150.55 562.407 -160.672 561.508 C-164.893 561.141 -169.089 560.901 -173.324 560.789 C-174.373 560.761 -175.422 560.732 -176.502 560.703 C-178.637 560.651 -180.773 560.607 -182.908 560.57 C-197.639 560.134 -197.639 560.134 -203.086 555.055 C-203.511 554.335 -203.937 553.616 -204.375 552.875 C-204.816 552.171 -205.257 551.467 -205.711 550.742 C-214.513 532.017 -213.415 509.974 -213.258 489.797 C-213.25 487.219 -213.243 484.642 -213.238 482.064 C-213.223 476.007 -213.195 469.949 -213.16 463.892 C-213.094 452.497 -213.055 441.102 -213.02 429.706 C-213.012 427.094 -213.003 424.482 -212.994 421.87 C-212.946 407.945 -212.972 394.052 -213.523 380.137 C-214.124 364.6 -213.989 349.08 -213.844 333.535 C-213.838 332.865 -213.831 332.194 -213.825 331.504 C-213.715 319.625 -213.586 307.747 -213.453 295.869 C-213.103 264.469 -212.862 233.084 -213.344 201.684 C-213.36 200.473 -213.376 199.263 -213.393 198.017 C-213.556 186.466 -213.844 174.964 -214.916 163.457 C-214.954 163.05 -214.954 163.05 -215.146 160.986 C-216.881 144.253 -216.881 144.253 -220 139 C-237.659 130.675 -259.258 131.301 -278.312 130.5 C-303.325 129.403 -303.325 129.403 -312.375 119.688 C-318.816 111.48 -319.124 101.506 -319.719 91.484 C-319.75 90.979 -319.75 90.979 -319.909 88.421 C-320.109 85.197 -320.305 81.974 -320.5 78.75 C-320.696 75.541 -320.892 72.331 -321.091 69.122 C-321.214 67.13 -321.336 65.137 -321.455 63.145 C-321.73 58.68 -322.06 54.235 -322.528 49.786 C-323.173 43.572 -323.297 37.365 -323.35 31.123 C-323.367 29.708 -323.394 28.292 -323.432 26.877 C-323.669 17.969 -323.342 10.493 -318 3 C-311.962 -2.894 -305.511 -2.313 -297.598 -2.234 C-292.64 -2.096 -287.788 -1.547 -282.871 -0.924 C-263.756 1.48 -244.885 1.291 -225.657 1.044 C-221.609 0.995 -217.562 0.957 -213.514 0.921 C-178.327 0.604 -143.183 0.154 -108.036 -1.659 C-100.193 -2.058 -92.349 -2.283 -84.5 -2.5 C-76.213 -2.741 -68 -3.177 -59.75 -4 C-11.454 -8.807 -11.454 -8.807 0 0 Z " fill="#BE582A" transform="translate(3256,1514)"/>
<path d="M0 0 C12.041 12.195 13.215 26.727 15 43 C15.049 43.412 15.049 43.412 15.297 45.495 C16.165 53.591 16.186 61.681 16.185 69.814 C16.187 72.232 16.206 74.649 16.225 77.066 C16.284 93.182 16.034 108.351 5.172 121.176 C-2.202 127.369 -8.284 127.405 -17.615 127.072 C-45.113 126.166 -72.614 128.835 -100 131 C-100.943 131.075 -101.887 131.149 -102.859 131.226 C-108.055 131.641 -113.247 132.086 -118.438 132.562 C-119.588 132.665 -120.738 132.767 -121.923 132.872 C-140.663 134.742 -140.663 134.742 -144.568 138.515 C-150.548 148.421 -151.527 162.483 -153.25 173.688 C-153.425 174.803 -153.601 175.918 -153.781 177.067 C-156.585 196.279 -156.585 196.279 -154.044 202.245 C-147.69 207.701 -137.782 206.055 -130.027 205.637 C-127.431 205.522 -124.834 205.412 -122.238 205.306 C-121.566 205.278 -120.895 205.25 -120.203 205.222 C-108.412 204.754 -96.608 204.813 -84.81 204.815 C-81.231 204.815 -77.652 204.801 -74.072 204.784 C-71.245 204.773 -68.418 204.771 -65.591 204.771 C-63.645 204.77 -61.699 204.759 -59.753 204.748 C-35.722 204.809 -35.722 204.809 -29 211 C-21.002 219.647 -23.546 233.102 -23.821 244.121 C-24.473 258.229 -26.816 272.301 -30.938 285.812 C-31.166 286.565 -31.394 287.317 -31.629 288.092 C-33.913 294.89 -37.535 299.793 -44.068 303.197 C-50.543 305.887 -57.322 306.291 -64.246 306.309 C-66.051 306.332 -67.855 306.355 -69.66 306.379 C-70.601 306.388 -71.542 306.397 -72.512 306.407 C-90.976 306.601 -109.313 307.454 -127.717 308.918 C-129.406 309.052 -131.096 309.186 -132.785 309.32 C-133.187 309.352 -133.187 309.352 -135.222 309.514 C-139.939 309.878 -144.64 310.124 -149.371 310.242 C-150.413 310.269 -151.454 310.295 -152.528 310.322 C-154.34 310.356 -156.154 310.37 -157.967 310.357 C-161.626 310.422 -163.576 310.642 -166.414 313.039 C-170.63 320.91 -170.648 329.884 -171.289 338.613 C-171.398 340.033 -171.507 341.452 -171.617 342.872 C-171.845 345.838 -172.068 348.804 -172.287 351.77 C-172.566 355.543 -172.855 359.315 -173.148 363.086 C-173.374 366.016 -173.596 368.946 -173.817 371.876 C-173.922 373.265 -174.028 374.655 -174.135 376.044 C-176.009 400.47 -176.009 400.47 -172 406 C-167.484 410.233 -161.795 409.151 -156 409 C-152.571 408.849 -149.15 408.623 -145.727 408.379 C-143.744 408.247 -141.76 408.114 -139.777 407.982 C-136.75 407.777 -133.722 407.569 -130.695 407.357 C-99.134 405.162 -67.593 404.781 -35.97 405.242 C-31.709 405.304 -27.448 405.35 -23.187 405.393 C-19.83 405.428 -16.473 405.472 -13.116 405.519 C-11.543 405.54 -9.971 405.558 -8.398 405.573 C7.63 405.733 22.443 406.658 34.812 418.062 C49.841 434.4 50.573 456.518 49.855 477.578 C48.542 502.247 41.725 532.426 23.062 549.812 C13.195 558.042 2.931 559.35 -9.562 559.688 C-10.235 559.707 -10.907 559.726 -11.599 559.746 C-74.95 561.492 -138.959 555.002 -201.929 548.694 C-212.683 547.619 -223.438 546.724 -234.219 545.969 C-234.831 545.925 -234.831 545.925 -237.931 545.706 C-243.973 545.282 -250.016 544.871 -256.061 544.482 C-258.27 544.331 -260.479 544.179 -262.688 544.027 C-263.684 543.968 -264.68 543.909 -265.706 543.848 C-273.843 543.271 -283.21 542.3 -289 536 C-311.149 499.299 -291.276 418.305 -287.883 378.447 C-286.991 367.947 -286.137 357.444 -285.312 346.938 C-285.253 346.177 -285.193 345.416 -285.131 344.632 C-284.469 336.218 -283.838 327.802 -283.238 319.384 C-282.426 308.04 -281.436 296.725 -280.312 285.408 C-279.461 276.834 -278.651 268.257 -277.871 259.676 C-274.193 219.233 -270.012 178.881 -265.14 138.564 C-264.965 137.117 -264.79 135.671 -264.616 134.224 C-261.883 111.573 -258.988 88.979 -255.062 66.5 C-254.997 66.126 -254.997 66.126 -254.667 64.236 C-254.139 61.217 -253.611 58.198 -253.078 55.18 C-252.339 50.983 -251.637 46.783 -250.969 42.574 C-249.072 31.008 -246.849 17.954 -237 10.312 C-224.344 3.719 -207.837 3.971 -193.918 2.809 C-191.692 2.617 -189.467 2.424 -187.241 2.23 C-181.408 1.726 -175.573 1.231 -169.739 0.739 C-165.041 0.34 -160.344 -0.065 -155.647 -0.471 C-91.202 -6.038 -91.202 -6.038 -74.5 -6.668 C-73.403 -6.712 -72.306 -6.756 -71.176 -6.801 C-68.912 -6.89 -66.648 -6.976 -64.383 -7.06 C-60.973 -7.189 -57.563 -7.331 -54.152 -7.475 C-10.929 -9.183 -10.929 -9.183 0 0 Z " fill="#BE582A" transform="translate(3532,1532)"/>
<path d="M0 0 C1.32 0 2.64 0 4 0 C6.994 5.987 4.801 14.814 3.5 21.125 C3.325 21.974 3.151 22.823 2.971 23.698 C-7.157 70.117 -32.304 106.93 -63 142 C-63.456 142.526 -63.912 143.052 -64.381 143.593 C-69.501 149.475 -74.821 154.935 -80.75 160 C-81.269 160.445 -81.788 160.89 -82.322 161.348 C-86.015 164.415 -89.743 166.818 -94 169 C-96.438 168.75 -96.438 168.75 -98 168 C-97.721 157.108 -85.055 147.532 -78 140 C-45.358 105.041 -22.129 66.354 -9.918 19.914 C-7.866 12.246 -5.702 5.702 0 0 Z " fill="#BE582A" transform="translate(2009,1849)"/>
<path d="M0 0 C1 3 1 3 -0.133 5.453 C-2.15 8.204 -4.071 9.824 -6.875 11.75 C-7.718 12.343 -8.561 12.936 -9.43 13.547 C-12.018 15.01 -14.073 15.601 -17 16 C-18.25 13.875 -18.25 13.875 -19 11 C-16.309 5.726 -12.701 2.418 -7.5 -0.312 C-4.616 -1.106 -2.848 -0.814 0 0 Z " fill="#BE582A" transform="translate(1909,2015)"/>
</svg>
